<?xml version="1.0" encoding="UTF-8"?><svg id="Layer_16" xmlns="http://www.w3.org/2000/svg" viewBox="0 0 735.88 288.04"><defs><style>.cls-1{fill:#18974c;}.cls-1,.cls-2,.cls-3{stroke-width:0px;}.cls-2{fill:#373a36;}.cls-3{fill:#fff;}</style></defs><path class="cls-2" d="m327.37,146.93c0-34.15,17-53.19,43.74-53.19,18.17,0,29.94,7.7,37.06,23.4l-16.42,8.72c-2.91-9.01-9.3-15.11-20.64-15.11-14.24,0-23.4,10.32-23.4,27.61v15.99c0,17.44,9.16,27.32,23.4,27.32,11.48,0,18.6-6.98,21.94-16.13l15.55,9.16c-7.27,15.11-19.33,23.98-37.49,23.98-26.74,0-43.74-17.58-43.74-51.74Z"/><path class="cls-2" d="m423.86,89.38h18.6v44.32h.73c3.05-8.14,9.45-14.39,21.22-14.39,15.55,0,24.27,10.75,24.27,29.65v47.96h-18.6v-46.07c0-10.75-3.63-16.28-12.5-16.28-7.7,0-15.11,4.07-15.11,12.21v50.14h-18.6v-107.54Z"/><path class="cls-2" d="m510.48,196.92v-101.44h66.85v17h-47.67v24.56h42.14v17h-42.14v25.87h47.67v17h-66.85Z"/><path class="cls-2" d="m597.67,95.48h46.94c16.71,0,26.88,10.32,26.88,26.01s-8.86,21.22-18.17,21.8v.87c8.86.15,21.94,6.39,21.94,23.69,0,16.28-11.19,29.07-26.16,29.07h-51.45v-101.44Zm19.18,42.29h23.69c6.98,0,11.05-4.07,11.05-10.75v-4.51c0-6.83-4.07-10.75-11.05-10.75h-23.69v26.01Zm0,42.87h26.74c7.27,0,11.63-3.92,11.63-11.04v-4.94c0-7.12-4.36-11.19-11.63-11.19h-26.74v27.18Z"/><path class="cls-2" d="m689.81,196.92v-15.4h13.37v-70.63h-13.37v-15.4h46.07v15.4h-13.51v70.63h13.51v15.4h-46.07Z"/><circle class="cls-1" cx="144.02" cy="144.02" r="144.02"/><path class="cls-2" d="m224.54,96.65s3.79-21.2,3.52-25.73c-.23-3.86-3.32-8.66-8.63-9-3.54-.23-8.58.95-10.76,6.48-1.84,4.67-4.84,26.12-4.84,26.12l-28.06,12.75-34.24-11.17s-7.22-41.15-9.13-46.05c-1.91-4.9-7.17-5.99-10.85-5.16-4.45,1-8.18,4.91-7.47,9.25.41,2.52,7.47,42.33,7.47,42.33l-28.44,20.93s-42.47-12.77-50.49-14.15c-5.71-.98-10.57,2.11-11.86,5.86-1.21,3.5.32,11.08,5.81,13.63,7.31,3.39,49.56,16.52,49.56,16.52l4.2,24.64s-43.79,30.31-47.53,37.36c-2.88,5.42-1.04,10,2.33,13.22,3.21,3.07,8.09,3.03,12.4,1.5,5.36-1.91,43.59-31.33,43.59-31.33l37.24,13.35s5.59,42.97,7.87,49.03c2.57,6.82,7.61,9.95,14.01,8.18,6.48-1.79,8.17-7.22,7.51-13.04-.53-4.66-8.87-49.9-8.87-49.9l25.88-20.43s47.44,7.1,48.26,5.47c1.61-3.21,24.62-45.58,25.13-48.38.47-2.57-33.61-32.28-33.61-32.28Zm-80.27,77.1c-1.8.41-31.27-9.39-32.75-11.02-1.61-1.79-4.43-23.88-4.01-26.42.42-2.54,23.52-17.46,25.49-17.87,1.98-.41,31.26,10.01,32.01,11.03.75,1.02,4.99,23.63,4.99,25.06s-23.93,18.8-25.73,19.21Zm77.28-20.88c-1.54.99-27.79-1.61-29.79-3.64-2-2.02-5.38-18.69-4.87-20.88.51-2.19,21.49-10.71,24.39-10.72s19.07,15.21,19.57,16.67-7.76,17.58-9.31,18.57Z"/><path class="cls-3" d="m221.54,90.65s3.79-21.2,3.52-25.73c-.23-3.86-3.32-8.66-8.63-9-3.54-.23-8.58.95-10.76,6.48-1.84,4.67-4.84,26.12-4.84,26.12l-28.06,12.75-34.24-11.17s-7.22-41.15-9.13-46.05c-1.91-4.9-7.17-5.99-10.85-5.16-4.45,1-8.18,4.91-7.47,9.25.41,2.52,7.47,42.33,7.47,42.33l-28.44,20.93s-42.47-12.77-50.49-14.15c-5.71-.98-10.57,2.11-11.86,5.86-1.21,3.5.32,11.08,5.81,13.63,7.31,3.39,49.56,16.52,49.56,16.52l4.2,24.64s-43.79,30.31-47.53,37.36c-2.88,5.42-1.04,10,2.33,13.22,3.21,3.07,8.09,3.03,12.4,1.5,5.36-1.91,43.59-31.33,43.59-31.33l37.24,13.35s5.59,42.97,7.87,49.03c2.57,6.82,7.61,9.95,14.01,8.18,6.48-1.79,8.17-7.22,7.51-13.04-.53-4.66-8.87-49.9-8.87-49.9l25.88-20.43s47.44,7.1,48.26,5.47c1.61-3.21,24.62-45.58,25.13-48.38.47-2.57-33.61-32.28-33.61-32.28Zm-80.27,77.1c-1.8.41-31.27-9.39-32.75-11.02-1.61-1.79-4.43-23.88-4.01-26.42.42-2.54,23.52-17.46,25.49-17.87,1.98-.41,31.26,10.01,32.01,11.03.75,1.02,4.99,23.63,4.99,25.06s-23.93,18.8-25.73,19.21Zm77.28-20.88c-1.54.99-27.79-1.61-29.79-3.64-2-2.02-5.38-18.69-4.87-20.88.51-2.19,21.49-10.71,24.39-10.72s19.07,15.21,19.57,16.67-7.76,17.58-9.31,18.57Z"/></svg>