<?xml version="1.0" encoding="UTF-8" standalone="no"?>
<svg
   width="164.76671"
   height="172.3194"
   fill="none"
   version="1.1"
   id="svg62"
   sodipodi:docname="coat_of_arms_light_green_2d9859ef66.svg"
   inkscape:export-filename="/home/acs98/Documents/Uniandes/BCEM/Website/BCEM-UniAndes.github.io/assets/img/collabpic/coat_of_arms_light_green_2d9859ef66.png"
   inkscape:export-xdpi="300"
   inkscape:export-ydpi="300"
   inkscape:version="1.1.2 (0a00cf5339, 2022-02-04)"
   xmlns:inkscape="http://www.inkscape.org/namespaces/inkscape"
   xmlns:sodipodi="http://sodipodi.sourceforge.net/DTD/sodipodi-0.dtd"
   xmlns="http://www.w3.org/2000/svg"
   xmlns:svg="http://www.w3.org/2000/svg">
  <defs
     id="defs66" />
  <sodipodi:namedview
     id="namedview64"
     pagecolor="#ffffff"
     bordercolor="#666666"
     borderopacity="1.0"
     inkscape:pageshadow="2"
     inkscape:pageopacity="0.0"
     inkscape:pagecheckerboard="0"
     showgrid="false"
     fit-margin-top="0"
     fit-margin-left="0"
     fit-margin-right="0"
     fit-margin-bottom="0"
     inkscape:zoom="3.5791855"
     inkscape:cx="79.906448"
     inkscape:cy="86.75158"
     inkscape:window-width="1844"
     inkscape:window-height="1009"
     inkscape:window-x="0"
     inkscape:window-y="0"
     inkscape:window-maximized="1"
     inkscape:current-layer="svg62" />
  <path
     fill="#4e5254"
     d="m 46.731177,159.0354 c -0.557,-0.293 -1.395,-1.891 -1.025,-2.596 0.37,-0.706 2.097,-1.24 2.654,-0.943 0.558,0.296 1.392,1.89 1.033,2.576 -0.358,0.686 -2.07,1.279 -2.662,0.963 z m -12.82,-4.744 -1.38,-1.111 3.87,-4.833 c 1.197,-1.497 0.885,-2.639 -0.475,-3.738 -0.87,-0.702 -1.91,-0.679 -2.81,0.452 l -4.175,5.215 -1.329,-1.072 3.933,-4.915 c 1.56,-1.949 3.55,-2.132 5.722,-0.39 1.867,1.509 2.292,3.321 0.854,5.118 z m -7.379,-20.994 -2.163,9.071 5.539,-4.939 1.08,1.22 -7.442,6.63 -1.185,-1.34 2.16,-8.712 -5.512,4.911 -1.06,-1.204 7.36,-6.564 z m -4.521,-5.932 0.978,1.5 -8.31,5.493 -0.983,-1.501 z m -10.634,1.948 -1.087,-1.508 6.108,-6.26 -8.4350002,1.091 -0.807,-1.629 10.5280002,-0.994 1.03,1.446 z m -5.9590002,-12.485 -1.926,-5.956 1.306,-0.253 c 0.417,1.364 0.842,2.748 1.263,4.112 l 2.818,-0.92 -1.22,-3.784 1.192,-0.195 1.107,3.625 3.1190002,-1.018 -1.49,-4.506 1.346,-0.268 1.949,6.072 -9.4650002,3.091 z m 2.198,-13.49 4.0500002,-0.78 0.335,1.766 -9.7680002,1.879 -0.64,-3.368 c -0.39,-2.128 0.2,-3.530998 1.833,-3.842998 a 3.065,3.065 0 0 1 3.118,1.250998 l 4.0380002,-3.456998 0.39,1.984 -3.7000002,2.852998 c 0.092,0.264 0.164,0.533 0.22,0.807 0.015,0.222 0.058,0.565 0.124,0.908 z m -3.356,-2.639 c -1.17,0.222 -1.668,1.006 -1.388,2.491 0.07,0.358 0.137,0.701 0.214,1.017 l 3.314,-0.635 a 13.364,13.364 0 0 0 -0.191,-1.314 c -0.18,-0.951 -0.772,-1.785 -1.95,-1.559 z m -1.368,-6.641998 c -1.56,0.058 -2.79500004,-1.427 -2.87700004,-3.586 a 10.81,10.81 0 0 1 0.273,-3.052 l 1.45000004,0.273 a 9.35,9.35 0 0 0 -0.448,3.2 c 0.035,0.916 0.483,1.559 1.274,1.524 0.791,-0.035 1.216,-0.639 1.785,-2.272 0.897,-2.585 1.63,-3.142 2.924,-3.193 1.766,-0.066 3.0630002,1.54 3.1600002,4.105 0.027,0.994 -0.08,1.988 -0.315,2.954 l -1.5120002,-0.292 a 9.39,9.39 0 0 0 0.499,-3.426 c -0.032,-0.877 -0.51,-1.676 -1.298,-1.645 -0.854,0.031 -1.364,0.499 -2.004,2.381 -0.713,2.094 -1.372,2.971 -2.912,3.029 z m -2.44900004,-13.104 -0.113,1.793 9.92400024,0.628 0.113,-1.793 -9.92300024,-0.628 z m 1.11600004,-8.825 c 0.573,-3.025 2.6,-4.65 5.53,-4.089 3.2900002,0.631 4.7100002,3.508 4.0900002,6.77 l -0.495,2.604 -9.77600024,-1.874 0.65000004,-3.411 z m 8.162,3.274 c 0.125,-0.433 0.273,-1.11 0.3900002,-1.711 0.296,-1.56 -0.3120002,-3.263 -3.0640002,-3.789 -2.592,-0.499 -3.972,0.982 -4.358,3.025 l -0.206,1.084 z m 2.7980002,-15.447 -1.387,3.66 2.202,1.867 -0.628,1.66 -7.8930002,-7.152 0.433,-1.82 10.8320002,0.062 -0.67,1.773 z m -5.8780002,-0.133 3.4340002,2.908 1.064,-2.803 z m 3.7030002,-12.286 c 1.497,-2.69 3.93,-3.59 6.533,-2.124 2.927,1.641 3.372,4.818 1.758,7.722 l -1.29,2.315 -8.6890002,-4.88 z m 6.72,5.699 c 0.254,-0.39 0.608,-0.97 0.908,-1.505 0.78,-1.387 0.725,-3.192 -1.719,-4.568 -2.303,-1.294 -4.077,-0.323 -5.09,1.493 l -0.534,0.963 z m 18.285,-20.647 -13.268,-2.858 7.379,7.964 -1.739,1.625 -9.9,-10.692 1.91,-1.789 12.742,2.865 -7.336,-7.92 1.715,-1.606 9.8,10.582 z m 11.277,-12.895 -4.974,2.799 0.725,4.17 -2.253,1.268 -2.175,-15.456 2.183,-1.637 12.083,10.295 -2.409,1.352 -3.18,-2.79 z m -6.467,-5.698 1.134,6.505 3.809,-2.14 z m 25.905,1.727 c -0.853,0.877 -2.603,1.867 -4.166,2.338 -4.007,1.197 -7.656,-0.355 -9.051,-5.067 -1.294,-4.3700002 0.701,-8.2950002 5.192,-9.6400002 1.734,-0.518 3.325,-0.682 4.073,-0.565 v 2.152 a 13.092,13.092 0 0 0 -4.249,0.491 c -1.992,0.596 -3.71,2.417 -2.526,6.4200002 1.252,4.225 4.288,4.806 6.748,4.077 a 7.406,7.406 0 0 0 2.99,-1.703 l 0.99,1.497 z m 7.453,-0.406 -2.584,0.367 -2.02,-14.4700002 2.585,-0.36599996 2.019,14.47000016 z m 11.675,-0.19 c -3.898,-0.25 -6.467,-3.072 -6.175,-7.7190002 0.316,-4.97 3.758,-7.67799996 8.35,-7.38599996 3.898,0.25 6.466,3.11799996 6.17,7.74499996 -0.312,4.9420002 -3.754,7.6510002 -8.345,7.3600002 z m 1.017,-13.2540002 c -2.28,-0.144 -4.21,1.197 -4.451,5.01 -0.273,4.3450002 1.629,6.2000002 4.564,6.3880002 2.308,0.148 4.237,-1.17 4.479,-5.0360002 0.273,-4.3 -1.645,-6.159 -4.592,-6.346 z m 21.407003,17.7320002 -3.953,-13.0540002 -3.348,10.3530002 -2.257003,-0.737 4.495003,-13.8960002 2.482,0.81 3.696,12.5900002 3.328,-10.2930002 2.23,0.729 -4.447,13.7510002 z m 16.64,3.765 -4.833,-3.032 -3.286,2.65 -2.191,-1.376 12.419,-9.355 2.479,1.135 -3.146,15.591 -2.339,-1.466 z m 1.844,-8.435 -5.118,4.128 3.699,2.339 z m 13.182,6.416 1.867,1.836 -8.832,9.09 4.607,4.397 -1.583,1.24 -6.221,-6.105 z m 12.817,22.312 c 1.621,2.615 1.235,5.192 -1.298,6.778 -2.842,1.781 -5.824,0.643 -7.574,-2.179 l -1.395,-2.249 8.439,-5.293 z m -8.186,3.169 c 0.199,0.39 0.55,1.005 0.869,1.524 0.838,1.348 2.433,2.179 4.81,0.69 2.238,-1.404 2.249,-3.43 1.17,-5.2 l -0.581,-0.932 z m 13.128,5.804 2.339,5.804 -1.283,0.35 -1.559,-4.01 -2.728,1.122 1.496,3.688 -1.169,0.284 -1.368,-3.54 -3.048,1.252 1.847,4.377 -1.321,0.367 -2.401,-5.913 z m -2.362,26.065 a 7.52,7.52 0 0 1 -1.22,-3.044 c -0.468,-2.842 0.896,-5.196 4.202,-5.746 3.067,-0.51 5.546,1.17 6.072,4.37 0.187,0.933 0.197,1.893 0.032,2.83 l -1.45,-0.195 c 0.17,-0.973 0.179,-1.967 0.027,-2.943 -0.23,-1.407 -1.314,-2.729 -4.12,-2.273 -2.966,0.491 -3.617,2.526 -3.333,4.257 0.124,0.789 0.43,1.539 0.893,2.19 z m -0.285,7.016 c -0.035,-2.694 1.75,-4.596 4.915,-4.635 3.392,-0.046 5.411,2.175 5.457,5.336 0.036,2.694 -1.765,4.596 -4.934,4.639 -3.38,0.035 -5.395,-2.187 -5.438,-5.34 z m 9.036,0 c 0,-1.559 -1.03,-2.822 -3.629,-2.787 -2.963,0.035 -4.124,1.438 -4.097,3.461 0,1.591 1.009,2.842 3.648,2.811 2.947,-0.043 4.105,-1.466 4.078,-3.485 z m 0.748,10.294 -0.25,1.782 -8.567,-1.205 -0.538,4.334998 -1.325,-0.375 0.826,-5.920998 z m -12.504,11.268998 c 0.779,-2.585 3.028,-3.867 6.065,-2.959 3.251,0.971 4.521,3.695 3.625,6.728 -0.78,2.584 -3.048,3.859 -6.085,2.951 -3.235,-0.963 -4.506,-3.688 -3.605,-6.72 z m 8.626,2.705 c 0.448,-1.505 -0.148,-3.006 -2.639,-3.75 -2.842,-0.85 -4.366,0.144 -4.939,2.081 -0.452,1.528 0.125,3.021 2.655,3.777 2.822,0.842 4.35,-0.171 4.923,-2.108 z m -5.165,11.039 -6.467,-4.264 0.776,-1.482 8.228,5.773 -0.884,1.68 -8.467,-0.982 5.633,6.381 -0.881,1.68 -9.367,-3.606 0.819,-1.551 7.187,2.935 -5.269,-5.98 0.039,-0.074 -0.016,-0.007 0.503,-1.489 z m -5.675,14.219 -1.949,2.577 c -1.322,1.73 -2.729,2.167 -3.898,1.247 -0.889,-0.682 -1.052,-1.707 -0.881,-2.705 -0.822,0.78 -2.077,1.353 -3.255,0.448 -1.415,-1.091 -1.337,-3.118 0.355,-5.328 l 1.766,-2.315 z m -9.086,0.02 c 0.916,0.705 1.984,0.343 2.947,-0.916 0.21,-0.277 0.475,-0.663 0.736,-1.002 l -2.561,-1.972 c -0.35,0.425 -0.779,0.947 -1.169,1.446 -0.627,0.842 -0.857,1.746 0.047,2.444 z m 3.835,2.105 c 0.838,0.647 1.669,0.565 2.694,-0.78 0.121,-0.16 0.319,-0.421 0.487,-0.674 l -2.448,-1.887 c -0.222,0.293 -0.471,0.589 -0.659,0.83 -0.947,1.232 -0.764,1.977 -0.074,2.511 z m -10.762,1.418 1.251,-1.286 7.122,6.981 -1.248,1.286 z m -5.531,8.517 3.036,-2.455 -0.962,-2.729 1.38,-1.115 3.215,10.182 -1.286,1.352 -9.32,-5.558 1.47,-1.17 z m 5.009,3.119 -1.505,-4.288 -2.338,1.883 z m -14.535,8.54 c -0.566,0.284 -2.339,0.031 -2.694,-0.678 -0.355,-0.71 0.222,-2.437 0.78,-2.729 0.557,-0.292 2.338,-0.031 2.685,0.667 0.347,0.697 -0.175,2.444 -0.771,2.74 z m -52.645003,10.329 1.559,-8.185 c -0.858,0.272 -1.883,0.553 -2.627,0.779 l -0.285,-1.426 c 1.037,-0.238 2.573,-0.605 3.684,-0.893 l 1.235,0.238 -1.867,9.822 -1.7,-0.335 z m 5.979,-1.746 c 0.102,-1.606 1.423,-2.526 2.897,-3.309 -1.31,-0.862 -2.066,-1.747 -1.949,-3.275 0.109,-1.75 1.8,-3.095 4.311,-2.931 1.762,0.109 3.262,1.189 3.153,2.896 -0.082,1.306 -1.099,2.261 -2.678,3.119 2.16,1.2 2.838,2.061 2.729,3.589 -0.117,1.871 -2.008,3.47 -4.802,3.29 -2.257,-0.14 -3.77,-1.403 -3.66,-3.379 z m 6.744,0.452 c 0.074,-1.138 -0.332,-1.801 -2.709,-3.095 -1.333,0.78 -2.175,1.251 -2.253,2.452 -0.082,1.302 1.025,2.151 2.604,2.249 1.379,0.09 2.295,-0.589 2.358,-1.606 z m -2.152,-4.572 c 1.244,-0.636 2.078,-1.318 2.14,-2.277 0.051,-0.853 -0.686,-1.738 -2.183,-1.835 -1.255,-0.078 -1.82,0.475 -1.886,1.535 -0.043,0.916 0.382,1.657 1.929,2.577 z m 6.95,3.434 c -0.203,-3.259 1.629,-6.42 5.722,-8.93 l 0.908,1.208 c -2.37,1.399 -3.898,2.947 -4.537,4.787 a 4.972,4.972 0 0 1 2.448,-0.873 c 2.389,-0.152 3.789,1.375 3.898,3.391 0.152,2.381 -1.47,4.424 -4.144,4.595 -2.393,0.156 -4.124,-1.473 -4.295,-4.178 z m 6.708,0.245 c -0.086,-1.364 -0.842,-2.705 -2.787,-2.58 a 3.56,3.56 0 0 0 -2.128,0.748 c -0.04,0.408 -0.047,0.819 -0.024,1.228 0.113,1.813 0.955,3.251 2.963,3.118 1.395,-0.097 2.066,-1.091 1.976,-2.514 z m 6.011,4.966 c 0.506,-2.444 1.948,-8.482 2.833,-11.304 l -6.236,1.201 -0.024,-1.637 7.796003,-1.497 0.246,1.306 c -0.667003,2.245 -2.269003,9.355 -2.729003,12.181 z"
     id="path2" />
  <path
     fill="#94b43b"
     d="m 119.77718,70.853402 c 0,-3.862 -1.828,-7.148 -4.775,-8.575 l -0.269,-0.129 0.133,0.27 c 0.075,0.175 0.106,0.366 0.089,0.557 0,0.95 -0.549,1.863 -1.169,2.923 -0.947,1.56 -2.128,3.547 -2.128,6.626 0,4.421 2.584,8.833 6.279,10.735 l 0.242,0.125 -0.101,-0.253 a 4.472,4.472 0 0 1 -0.293,-1.559 c 0,-1.727 0.48,-3.419 0.987,-5.208 0.506,-1.79 1.005,-3.645 1.005,-5.512 z m -4.677,-5.336 a 40.697,40.697 0 0 0 -0.85,5.937 25.207,25.207 0 0 0 0.304,4.591 l 0.152,0.76 0.051,-0.78 c 0.101,-1.601 0.257,-3.207 0.39,-4.564 a 47.56,47.56 0 0 1 0.904,-6.17 c 0.263,1.414 0.393,2.85 0.39,4.288 0,2.966 -0.201,5.929 -0.605,8.867 0.994,-3.313 1.61,-6.708 1.61,-8.867 a 26.344,26.344 0 0 0 -0.39,-4.572 9.854,9.854 0 0 1 1.692,5.827 c 0,1.773 -0.507,3.508 -0.998,5.215 -0.491,1.707 -1.017,3.508 -1.013,5.352 -2.729,-2.424 -4.109,-5.418 -4.109,-8.91 0.024,-2.273 0.881,-4.257 2.476,-6.974 z m -16.461003,-9.269 a 4.377,4.377 0 0 0 1.442003,3.087 l 0.141,0.12 0.027,-0.179 c 0.195,-1.255 2.226,-2.927 4.837,-3.329 h 0.024 l 0.023,-0.019 c 1.949,-1.505 2.799,-4.249 2.799,-6.303 0,-2.795 -1.357,-4.7 -2.67,-6.54 -0.697,-0.92 -1.312,-1.9 -1.836,-2.928 0.461,0.171 0.951,0.25 1.442,0.234 a 2.922,2.922 0 0 0 3.013,-2.966 c 0,-2.242 -1.816,-3.867 -4.319,-3.867 -3.149,0 -6.326003,2.729 -6.326003,8.837 0,1.52 0.273,6.75 3.734003,10.789 a 3.144,3.144 0 0 0 -2.331003,3.064 z m 5.718003,-17.307 a 1.304,1.304 0 0 0 -0.167,-2.029 1.305,1.305 0 0 0 -0.733,-0.224 c -0.826,0 -1.407,0.659 -1.407,1.606 0,1.719 1.087,3.294 2.233,4.962 1.322,1.918 2.69,3.898 2.69,6.385 a 7.777,7.777 0 0 1 -1.138,4.03 c 0.179,-4.354 -1.099,-6.505 -2.339,-8.575 -0.686,-1.17 -1.594,-2.304 -2.05,-3.863 0.285,1.577 0.811,3.1 1.559,4.518 0.939,1.976 1.914,4.018 1.715,7.881 -4.872003,-8.248 -4.931003,-12.672 -4.436,-15.61 l 0.133,-0.78 -0.328,0.725 c -1.559003,3.45 -0.284003,8.965 3.77,16.421 -1.56,-0.23 -2.826,0.32 -3.364,1.501 l -0.176,0.39 0.328,-0.257 a 3.077,3.077 0 0 1 2.861,-0.507 c -1.922,0.483 -2.826,1.298 -3.532003,2.362 a 2.73,2.73 0 0 1 -0.444,-1.583 c 0,-1.305 0.935003,-2.233 2.631003,-2.611 l 0.164,-0.04 -0.106,-0.124 a 17.129,17.129 0 0 1 -4.092003,-11.081 c 0,-5.458 2.806003,-7.929 5.418003,-7.929 2.011,0 3.313,1.17 3.313,2.959 a 2.073,2.073 0 0 1 -2.008,2.16 3.031,3.031 0 0 1 -1.496,-0.293 1.51,1.51 0 0 0 1.001,-0.394 z m 6.943,20.721 h 0.043 c 1.496,0 2.911,1.006 4.412,2.074 1.692,1.2 3.442,2.444 5.527,2.444 2.175,0 3.82,-1.47 3.82,-3.415 a 3.194,3.194 0 0 0 -0.863,-2.313 3.185,3.185 0 0 0 -2.255,-1.004 c -1.018,0 -1.735,0.519 -1.887,1.341 a 4.99,4.99 0 0 0 -1.594,-1.17 6.296,6.296 0 0 0 3.079,-6.275 v -0.05 l -0.047,-0.024 a 5.639,5.639 0 0 0 -2.151,-0.312 6.582,6.582 0 0 0 -3.613,1.17 8.635,8.635 0 0 0 -0.815,-3.446 6.152,6.152 0 0 1 -0.639,-2.577 6.63,6.63 0 0 1 0.245,-1.68 l 0.035,-0.128 h -0.136 c -2.861,0.054 -5.824,3.075 -5.824,8.033 0,2.593 1.061,5.524 2.639,7.297 z m 1.832,-14.211 0.097,-0.035 c 0.086,-0.028 0.191,-0.067 0.281,-0.09 -0.074,0.34 -0.111,0.686 -0.109,1.033 0.041,0.822 0.245,1.627 0.6,2.37 a 8.904,8.904 0 0 1 0.803,3.601 6.567,6.567 0 0 1 -0.242,2.078 l -0.206,0.624 0.389,-0.53 c 1.287,-1.774 2.881,-2.67 4.736,-2.67 0.407,-0.004 0.812,0.04 1.209,0.132 0.085,1.894 -0.959,4.362 -4.159,5.695 l -0.336,0.14 0.359,0.055 a 5.083,5.083 0 0 1 3.188,1.656 c 0.46,0.46 0.858,0.854 1.56,0.854 a 1.165,1.165 0 0 0 0.865,-0.34 1.172,1.172 0 0 0 0.343,-0.865 0.976,0.976 0 0 0 -0.331,-0.744 1.064,1.064 0 0 0 -0.156,-0.11 c 1.309,0 2.089,1.256 2.089,2.46 0,1.454 -1.169,2.507 -2.81,2.507 -1.704,0 -3.372,-1.142 -4.986,-2.245 a 23.414,23.414 0 0 0 -2.444,-1.536 6.06,6.06 0 0 1 3.259,0.807 l 0.226,0.144 c 2.152,1.372 4.015,2.56 5.379,0.889 l 0.546,-0.667 -0.686,0.522 c -1.17,0.885 -2.339,0.121 -4.062,-1.033 -0.331,-0.218 -0.674,-0.448 -1.041,-0.678 -1.103,-0.69 -2.701,-0.799 -3.566,-0.818 a 16.397,16.397 0 0 0 4.288,-3.298 l 0.389,-0.475 -0.53,0.323 c -0.39,0.234 -0.779,0.483 -1.169,0.733 -1.099,0.69 -2.234,1.4 -3.415,2.03 1.216,-1.66 3.341,-3.527 5.652,-4.95 l 0.628,-0.39 -0.71,0.203 c -2.198,0.62 -4.638,2.729 -6.295,4.627 0.339,-1.419 0.881,-4.206 0.655,-6.697 l -0.078,-0.85 -0.125,0.843 a 52.396,52.396 0 0 1 -1.379,6.439 23.256,23.256 0 0 1 0.522,-9.862 l 0.171,-0.627 -0.354,0.545 c -1.396,2.164 -1.805,5.383 -1.275,10.108 a 11.499,11.499 0 0 1 -1.298,-5.032 c -0.016,-3.446 1.279,-5.957 3.528,-6.876 z m -33.062003,14.512 c 0.389,0 0.729,-0.347 1.048,-1.065 l 0.14,-0.32 -0.292,0.196 c -0.086,0.058 -0.14,0.09 -0.187,0.117 0.089,-0.123 0.168,-0.254 0.234,-0.39 l 0.136,-0.273 -0.273,0.136 c -0.849,0.425 -1.212,0.78 -1.212,1.248 a 0.357,0.357 0 0 0 0.255,0.34 c 0.049,0.014 0.1,0.018 0.151,0.01 z"
     id="path4" />
  <path
     fill="#94b43b"
     d="m 123.90118,82.095402 a 3.252,3.252 0 0 0 -2.42,-0.952 c -1.252,0.051 -2.059,0.78 -2.059,1.86 a 1.44,1.44 0 0 0 0.388,1.049 1.453,1.453 0 0 0 1.02,0.459 1.64,1.64 0 0 0 0.389,-0.043 c -0.463,0.527 -1.348,0.593 -1.75,0.593 -2.498,0 -4.903,-1.711 -6.131,-4.362 l -0.129,-0.273 -0.066,0.296 a 14.46,14.46 0 0 0 -0.304,3.119 c 0,2.459 0.713,4.514 2.062,5.944 a 6.336,6.336 0 0 0 4.677,1.988 c 3.376,0 5.847,-2.448 5.847,-5.823 a 5.332,5.332 0 0 0 -1.524,-3.855 z m -4.373,6.883 c 1.699,0 3.118,-1.103 3.66,-2.88 l 0.28,-0.897 -0.467,0.815 c -0.78,1.352 -1.844,1.949 -3.473,1.949 -2.051,0 -4.155,-1.68 -5.04,-3.968 1.239,1.103 2.728,2.062 4.989,2.062 1.832,0 3.118,-1.053 3.118,-2.561 a 1.4,1.4 0 0 0 -1.216,-1.501 h 0.113 c 1.63,0 2.908,1.742 2.908,3.964 a 4.701,4.701 0 0 1 -1.384,3.451 4.703,4.703 0 0 1 -3.457,1.371 c -3.021,0 -5.134,-2.082 -5.734,-5.609 1.31,2.428 3.356,3.804 5.703,3.804 z m -41.255003,2.14 c 1.033,-0.744 0.779,-1.5 0.433,-2.136 l -1.384,-2.97 h -0.355 l 1.041,3.021 c -0.036,0.133 -0.08,0.263 -0.133,0.39 -0.152,0.284 -0.207,0.61 -0.156,0.928 a 1.626,1.626 0 0 0 -1.11,0.12 2.176,2.176 0 0 1 -0.706,0.164 h -0.226 l 0.148,0.172 c 0.452,0.514 0.873,0.779 1.325,0.779 a 1.946,1.946 0 0 0 1.123,-0.468 z"
     id="path6" />
  <path
     fill="#94b43b"
     d="m 76.176177,89.926402 c 0.156,0.107 0.34,0.166 0.53,0.167 a 0.857,0.857 0 0 0 0.339,-0.07 c 0.269,-0.136 0.557,-0.312 0.557,-0.694 0,-0.779 -0.74,-1.372 -1.403,-1.672 v -3.449 h -0.351 v 0.097 c -0.101,1.805 -0.163,2.81 -0.202,3.411 -0.039,0.6 -0.051,0.806 -0.051,1.009 a 1.423,1.423 0 0 0 0.581,1.201 z m 6.104,-1.903 c 1.091,0 2.12,-0.686 2.338,-1.559 l 1.906,-2.857 h -0.444 l -2.023,2.631 -0.343,0.14 c -0.577,0.234 -1.169,0.476 -1.442,0.831 -0.242,-0.351 -0.838,-0.589 -1.415,-0.819 l -0.39,-0.152 -2.023,-2.631 h -0.444 l 1.906,2.756 a 2.315,2.315 0 0 0 2.374,1.66 z m -2.588,4.085 a 2.035,2.035 0 0 0 0.627,-1.43 1.638,1.638 0 0 0 -0.635,-1.127 l -0.168,-0.148 v 0.211 c -0.04,0.258 -0.134,0.505 -0.276,0.725 -0.22,0.303 -0.325,0.675 -0.297,1.048 -0.365,0.001 -0.721,0.12 -1.013,0.339 a 1.715,1.715 0 0 1 -0.721,0.297 h -0.203 l 0.121,0.163 a 1.521,1.521 0 0 0 1.115,0.706 h 0.05 c 0.449,0.015 0.916,-0.253 1.4,-0.784 z"
     id="path8" />
  <path
     fill="#94b43b"
     d="m 82.280177,86.418402 a 2.448,2.448 0 0 0 2.249,-1.466 l 1.384,-2.553 h -0.429 l -1.318,2.148 -0.389,0.152 c -0.581,0.23 -1.228,0.483 -1.509,0.896 -0.257,-0.409 -0.908,-0.662 -1.493,-0.889 -0.14,-0.054 -0.277,-0.105 -0.39,-0.159 l -1.418,-2.129 h -0.433 l 1.485,2.554 c 0.226,0.83 1.173,1.446 2.261,1.446 z m 20.128003,7.277 c -0.452,0.02 -0.9,0.099 -1.333,0.234 a 6.067,6.067 0 0 1 -1.559003,0.269 c -2.222,0 -3.714,-0.885 -4.829,-2.861 l -0.031,-0.051 h -1.217 l -0.873,1.201 0.035,0.058 c 0.251,0.407 0.386,0.875 0.39,1.353 a 4.398,4.398 0 0 1 -0.429,1.559 10.067,10.067 0 0 0 -0.877,4.159 c 0,2.139998 0.741,3.565998 1.337,4.711998 0.414,0.799 0.78,1.493 0.78,2.214 a 0.933,0.933 0 0 1 -0.456,0.722 l -0.07,0.042 0.46,1.146 h 2.03 l 7.870003,-12.304998 c 0.181,-0.322 0.288,-0.68 0.312,-1.049 a 1.453,1.453 0 0 0 -0.476,-1.024 1.463,1.463 0 0 0 -1.064,-0.379 z m -2.011,1.731 v 2.907 l -0.647003,0.955 v -3.784 c 0.217,-0.011 0.434003,-0.037 0.647003,-0.078 z m 0.706,-0.145 c 0.15,-0.044 0.297,-0.099 0.44,-0.163 0.114,-0.057 0.236,-0.096 0.363,-0.113 0.067,0 0.133,0.019 0.19,0.055 a 0.452,0.452 0 0 1 0.133,0.588 l -1.122,1.633 z m -2.058003,0.273 v 4.837998 l -0.651,0.955 v -5.846998 c 0.215,0.033 0.433,0.051 0.651,0.054 z m -1.357,-0.171 v 6.964998 l -0.702,1.053 v -8.255998 l 0.145,0.051 c 0.182,0.073 0.368,0.136 0.557,0.187 z m -4.514,4.034 a 10.037,10.037 0 0 1 0.671,-3.683 c 0.302,-0.767 0.48,-1.576 0.53,-2.398 l 0.503,0.503 V 105.0034 a 11.845,11.845 0 0 0 -0.519,-1.135 8.987,8.987 0 0 1 -1.185,-4.450998 z m 3.119,-4.603 v 9.642998 l -0.698,1.052 V 94.401402 c 0.219,0.152 0.449,0.29 0.686,0.413 z"
     id="path10" />
  <path
     fill="#94b43b"
     d="m 82.280177,83.443402 a 0.96,0.96 0 0 0 0.853,-0.908 2.208,2.208 0 0 0 -0.312,-1.014 9.15,9.15 0 0 1 -0.241,-0.514 l -0.106,-1.984 h -0.389 l -0.106,1.984 c -0.085,0.199 -0.167,0.366 -0.237,0.514 a 2.16,2.16 0 0 0 -0.316,1.014 0.962,0.962 0 0 0 0.854,0.908 z"
     id="path12" />
  <path
     fill="#94b43b"
     d="m 82.280177,84.811402 c 1.072,0 1.586,-0.736 1.949,-1.473 l 0.849,-2.444 h -0.358 l -0.967,2.035 -0.28,0.128 c -0.449,0.207 -0.979,0.449 -1.197,0.85 -0.234,-0.425 -0.83,-0.67 -1.368,-0.893 l -0.215,-0.089 -0.861,-2.031 h -0.363 l 0.85,2.44 a 1.973,1.973 0 0 0 1.961,1.477 z"
     id="path14" />
  <path
     fill="#94b43b"
     d="m 85.102177,92.814402 c -0.297,-0.25 -0.628,-0.526 -0.998,-0.437 a 1.702,1.702 0 0 0 -0.117,-1.126 1.817,1.817 0 0 1 -0.152,-0.803 l 0.027,-0.207 -0.179,0.102 a 1.665,1.665 0 0 0 -0.78,1.224 1.377,1.377 0 0 0 0.261,1.06 l -0.553,0.413 v -3.017 c 1.002,-0.136 2.089,-0.834 2.304,-1.949 l 2.202,-3.255 h -0.441 l -2.338,2.928 -0.441,0.156 c -0.658,0.218 -1.391,0.463 -1.652,0.888 -0.265,-0.425 -0.998,-0.67 -1.657,-0.888 l -0.44,-0.156 -2.339,-2.928 h -0.445 l 2.207,3.255 c 0.218,1.127 1.302,1.824 2.303,1.949 v 3.017 l -0.549,-0.413 a 1.39,1.39 0 0 0 0.257,-1.06 1.67,1.67 0 0 0 -0.78,-1.224 l -0.179,-0.102 0.027,0.207 c 0.011,0.276 -0.041,0.55 -0.152,0.803 a 1.72,1.72 0 0 0 -0.117,1.13 c -0.389,-0.101 -0.779,0.215 -1.095,0.476 -0.165,0.164 -0.36,0.296 -0.573,0.39 l -0.187,0.062 0.156,0.117 c 0.78,0.569 1.508,0.491 2.28,-0.25 l 0.624,0.468 -2.054,1.559 0.838,0.277 1.485,-1.115 v 1.672 l 0.355,0.145 0.35,-0.145 v -1.676 l 1.591,1.119 0.838,-0.281 -2.156,-1.559 0.62,-0.468 c 0.78,0.749 1.508,0.827 2.28,0.25 l 0.164,-0.125 -0.195,-0.054 a 1.997,1.997 0 0 1 -0.6,-0.429 z"
     id="path16" />
  <path
     fill="#94b43b"
     d="m 112.69918,125.7204 a 5.417,5.417 0 0 0 -1.98,0.39 5.006,5.006 0 0 0 -3.691,-1.789 c -1.735,0 -2.815,0.884 -2.815,2.311 a 2.298,2.298 0 0 0 0.507,1.493 c -0.721,-0.312 -1.368,-0.604 -2.085,-0.932 -0.546,-0.249 -1.127,-0.51 -1.793,-0.807 -2.666003,-1.196 -11.768003,-5.067 -18.250003,-5.176 3.329,-1.731 6.626,-2.849 9.815,-3.929 3.044,-1.029 5.917,-2 8.497003,-3.415 a 18.427,18.427 0 0 0 7.57,-8.029 c 2.046,-4.128 3.118,-9.623998 3.325,-16.803998 v -0.105 h -0.106 c -2.393,0 -3.508,-0.78 -3.508,-2.405 0,-1.427 0.573,-2.308 3.415,-2.308 h 0.101 v -0.105 a 28.705,28.705 0 0 0 -0.659,-5.656 27.836,27.836 0 0 1 -0.647,-5.488 c 0,-1.844 0.429,-5.52 3.294,-9.355 l 0.039,-0.05 -1.169,-2.246 -0.086,0.031 a 2.892,2.892 0 0 1 -3.785,-3.69 l 0.024,-0.079 -2.339,-1.282 -0.055,0.05 c -3.734,3.532 -7.842003,5.395 -11.877003,5.395 a 17.173,17.173 0 0 1 -8.403,-2.218 l -0.078,-0.046 -3.684,5.067 -3.687,-5.067 -0.078,0.046 a 17.18,17.18 0 0 1 -8.385,2.195 c -4.092,0 -8.088,-1.813 -11.876,-5.395 l -0.055,-0.05 -2.339,1.282 0.024,0.078 a 3.02,3.02 0 0 1 -0.628,3.009 3.056,3.056 0 0 1 -3.157,0.682 l -0.082,-0.031 -1.17,2.245 0.04,0.05 c 2.865,3.856 3.293,7.531 3.293,9.356 a 28.104,28.104 0 0 1 -0.643,5.488 28.41,28.41 0 0 0 -0.662,5.656 v 0.105 h 0.1 c 2.843,0 3.415,0.881 3.415,2.308 0,1.641 -1.118,2.404 -3.508,2.404 h -0.105 v 0.106 c 0.191,7.18 1.279,12.675998 3.325,16.802998 a 18.447,18.447 0 0 0 7.574,8.034 c 2.576,1.411 5.457,2.382 8.493,3.411 3.192,1.079 6.49,2.198 9.819,3.929 -6.482,0.124 -15.592,3.979 -18.254,5.176 l -1.77,0.78 c -0.725,0.331 -1.38,0.627 -2.108,0.943 0.34,-0.422 0.519,-0.951 0.506,-1.493 0,-1.427 -1.08,-2.311 -2.814,-2.311 a 5.001,5.001 0 0 0 -3.691,1.789 5.506,5.506 0 0 0 -1.98,-0.39 c -1.984,0 -3.216,1.06 -3.216,2.764 v 4.825 c 0,2.678 1.98,4.218 5.426,4.218 3.118,0 6.295,-1.341 11.233,-3.508 6.073,-2.686 10.868,-4.81 16.98,-4.81 6.111,0 10.914,2.124 16.975,4.81 4.938003,2.182 8.127003,3.508 11.234003,3.508 3.445,0 5.425,-1.54 5.425,-4.218 v -4.786 c -0.015,-1.704 -1.247,-2.764 -3.231,-2.764 z M 54.523177,78.556402 c 0.356,-1.918 0.572,-3.86 0.647,-5.808 0,-2.963 -1.193,-6.455 -3.196,-9.355 l 0.542,-1.064 a 3.817,3.817 0 0 0 3.38,-1.049 3.983,3.983 0 0 0 1.04,-3.227 l 1.13,-0.585 c 3.828,3.48 7.89,5.247 12.084,5.247 a 18.854,18.854 0 0 0 8.185,-1.88 l 3.349,4.725 v 12.36 c -1.31,0.963 -3.38,1.559 -5.422,1.559 a 10.522,10.522 0 0 1 -1.291,-0.097 h -0.058 l -1.278,1.559 0.023,0.059 c 0.352,0.933 0.521,1.926 0.495,2.923 a 14.557,14.557 0 0 1 -0.187,2.105 h -16.535 c -0.14,-1.587 -1.364,-2.577 -3.457,-2.799 0.082,-1.563 0.266,-3.119 0.55,-4.658 v -0.015 z m 53.097003,-20.511 a 3.977,3.977 0 0 0 1.041,3.227 3.815,3.815 0 0 0 3.379,1.049 l 0.542,1.08 c -2.003,2.896 -3.196,6.384 -3.196,9.355 0.075,1.949 0.291,3.89 0.647,5.807 0.285,1.534 0.472,3.085 0.557,4.643 -2.093,0.222 -3.317,1.212 -3.457,2.798 H 90.598177 a 14.544,14.544 0 0 1 -0.187,-2.104 7.715,7.715 0 0 1 0.495,-2.924 l 0.023,-0.058 -1.278,-1.559 h -0.055 c -0.429,0.058 -0.861,0.091 -1.294,0.097 -2.042,0 -4.112,-0.592 -5.422,-1.559 v -12.33 l 3.345,-4.723 a 18.884,18.884 0 0 0 8.185,1.879 c 4.175,0 8.236003,-1.766 12.084003,-5.247 z M 91.019177,116.6694 c -2.767,0.916 -5.628,1.863 -8.139,3.118 V 97.636402 c 6.709,-2.284 7.983,-4.931 7.983,-9.008 a 11.368,11.368 0 0 0 -0.109,-1.392 c 0,-0.074 0,-0.148 -0.027,-0.214 h 16.406003 c 0.113,1.169 0.834,2.553 3.555,2.802 -0.277,11.798998 -3.676,19.376998 -10.388,23.161998 -2.768003,1.543 -6.077003,2.638 -9.281003,3.699 z m -1.805,-36.280998 0.585,0.717 -0.035,0.16 c -0.223,0.858 -0.344,1.74 -0.359,2.627 0.024,0.817 0.095,1.631 0.215,2.44 0.102,0.688 0.164,1.382 0.187,2.077 0,3.898 -1.127,6.116 -7.527,8.225 -6.404,-2.105 -7.531,-4.331 -7.531,-8.225 a 18.3,18.3 0 0 1 0.191,-2.077 c 0.118,-0.809 0.189,-1.623 0.211,-2.44 a 11.193,11.193 0 0 0 -0.355,-2.627 l -0.039,-0.16 0.585,-0.717 h 0.054 c 0.249,0.052 0.502,0.08 0.757,0.085 2.436,0 4.443,-0.553 6.127,-1.687 1.684,1.134 3.687,1.687 6.124,1.687 a 4.35,4.35 0 0 0 0.779,-0.085 z m -31.79,6.626 h 16.405 l -0.023,0.211 a 10.68,10.68 0 0 0 -0.113,1.395 c 0,4.077 1.275,6.724 7.983,9.008 V 119.7804 c -2.51,-1.24 -5.371,-2.187 -8.139,-3.119 -3.2,-1.06 -6.51,-2.155 -9.28,-3.699 -6.713,-3.785 -10.112,-11.362 -10.389,-23.160998 2.721,-0.226 3.442,-1.614 3.555,-2.779 v -0.008 z m -3.961,42.716998 c -1.773,0 -3.613,-0.694 -3.613,-1.856 0,-0.608 0.67,-1.255 1.906,-1.255 0.95,0 1.949,0.456 3.165,1.142 0.924,0.519 2.07,1.065 3.208,1.068 a 15.121,15.121 0 0 1 -4.666,0.909 z m 1.259,-3.193 a 3.952,3.952 0 0 1 2.806,-1.321 c 1.065,0 1.81,0.577 1.81,1.403 0,0.827 -0.445,1.252 -1.17,1.252 -1.076,0.007 -2.429,-0.745 -3.446,-1.326 z m 27.558,-4.334 c 5.067,0 12.953,2.752 18.180003,5.11 4.287,1.949 7.581,3.321 10.633,3.321 2.175,0 3.173,-0.538 3.812,-1.119 v 3.754 c 0,2.039 -1.61,3.208 -4.416,3.208 -2.807,0 -6.131,-1.368 -10.852003,-3.453 -6.626,-2.947 -11.397,-4.877 -17.357,-4.877 -5.96,0 -10.747,1.93 -17.361,4.877 -4.865,2.151 -8.022,3.453 -10.852,3.453 -2.83,0 -4.416,-1.169 -4.416,-3.208 v -3.73 c 0.64,0.581 1.64,1.119 3.812,1.119 3.056,0 6.334,-1.376 10.633,-3.321 5.231,-2.374 13.128,-5.126 18.184,-5.126 z m 24.167003,6.626 c 1.138,0 2.284,-0.549 3.208,-1.068 1.212,-0.686 2.214,-1.142 3.165,-1.142 1.235,0 1.906,0.647 1.906,1.255 0,1.17 -1.84,1.856 -3.613,1.856 a 15.115,15.115 0 0 1 -4.686,-0.893 z m -1.209,-2.21 c 0,-0.826 0.745,-1.403 1.809,-1.403 a 3.957,3.957 0 0 1 2.807,1.321 c -1.018,0.581 -2.37,1.334 -3.462,1.334 -0.729,0.007 -1.173,-0.472 -1.173,-1.228 z"
     id="path18" />
  <path
     fill="#94b43b"
     d="m 107.86518,121.4054 c 0,0.779 0.644,1.306 1.56,1.306 a 2.027,2.027 0 0 0 1.474,-0.643 2.014,2.014 0 0 0 0.537,-1.517 c 0,-2.966 -3.267,-5.457 -7.133,-5.457 -2.538,0 -4.912003,0.955 -7.917003,2.16 -1.871,0.752 -3.991,1.606 -6.517,2.362 l -0.183,0.054 0.148,0.125 c 2.915,2.413 5.909,3.637 8.899,3.637 2.845003,0 5.090003,-1.142 6.895003,-2.054 1.146,-0.585 2.089,-1.061 2.849,-1.065 a 1.203,1.203 0 0 0 -0.612,1.092 z m -3.301,-2.152 c -1.949,0.823 -4.989003,1.197 -6.989003,1.197 -0.448,0 -1.82,-0.023 -2.884,-0.062 a 37.676,37.676 0 0 0 5.846003,-1.271 c 2.511,-0.702 4.678,-1.306 7.083,-0.924 l 0.811,0.129 -0.753,-0.324 a 8.713,8.713 0 0 0 -3.052,-0.51 c -1.652,0 -3.508,0.459 -5.500003,0.947 -1.865,0.521 -3.774,0.87 -5.702,1.044 0.963,-0.335 2.007,-0.779 3.118,-1.216 2.729,-1.118 5.539003,-2.276 7.796003,-2.276 2.471,0 6.123,1.465 6.123,4.615 v 0.051 c -0.272,-0.835 -1.009,-1.256 -2.206,-1.256 -0.955,0 -2.054,0.546 -3.329,1.17 -1.769,0.881 -3.773,1.879 -6.158003,1.879 a 11.916,11.916 0 0 1 -4.818,-1.084 c 3.216,0.109 6.786003,0.004 10.626003,-2.124 z M 86.645177,91.828402 a 1.527,1.527 0 0 0 -1.033,-0.359 1.552,1.552 0 0 0 -0.284,-1.041 1.952,1.952 0 0 1 -0.289,-0.779 v -0.246 l -0.171,0.176 c -0.842,0.838 -0.842,1.707 0,2.646 a 1.905,1.905 0 0 0 1.364,0.76 1.6,1.6 0 0 0 1.17,-0.662 l 0.144,-0.168 h -0.222 a 1.614,1.614 0 0 1 -0.679,-0.327 z"
     id="path20" />
  <path
     fill="#94b43b"
     d="m 111.30318,101.7444 -0.113,-0.078 -0.043,0.129 c -0.312,0.951 -0.557,1.949 -0.779,2.915 -0.854,3.465 -1.661,6.736 -5.212,7.663 l -0.113,0.028 0.047,0.109 c 0.67,1.559 2.573,2.272 4.062,2.272 1.656,0 3.27,-0.83 3.971,-2.011 0.189,0.742 0.438,1.467 0.745,2.167 0.311,0.628 0.514,1.304 0.6,2 0.018,0.182 -0.003,0.365 -0.062,0.538 a 1.408,1.408 0 0 0 -1.341,-0.78 1.562,1.562 0 0 0 -1.509,1.509 c 0,1.243 1.033,2.108 2.515,2.108 2.549,0 5.121,-2.14 5.121,-6.926 -0.023,-4.284 -2.362,-7.769 -7.889,-11.643 z m 1.848,6.007 v 0.253 c 0.023,2.187 -0.449,3.785 -1.404,4.751 a 3.521,3.521 0 0 1 -2.611,1.018 4.196,4.196 0 0 1 -2.471,-0.866 c 2.303,-0.955 3.761,-3.402 4.677,-7.869 0.495,2.787 -0.702,6.26 -2.183,7.558 l -0.389,0.331 0.483,-0.16 c 2.222,-0.74 3.387,-4.568 3.251,-7.835 2.202,3.119 3.477,7.406 3.944,10.416 l 0.133,0.853 0.07,-0.861 c 0.273,-3.337 -0.78,-6.985 -3.021,-10.579 2.803,2.21 4.522,5.457 4.522,8.614 0,2.635 -0.979,4.74 -2.624,5.629 a 2.68,2.68 0 0 1 -2.019,0.288 c 0.37,-0.008 0.728,-0.131 1.025,-0.351 a 2.374,2.374 0 0 0 0.862,-1.949 c 0,-0.779 -0.292,-1.52 -0.663,-2.44 -0.565,-1.391 -1.485,-2.927 -1.559,-6.174 l -0.051,-0.624 z M 62.953177,98.817402 c 0,-1.56 0.578,-2.179 2.055,-2.207 v 0.671 a 25.963,25.963 0 0 1 -0.203,4.130998 c -0.241,1.587 -0.888,2.074 -1.87,2.807 l -0.14,0.105 1.297,1.411 0.078,-0.066 c 1.43,-1.228 2.09,-2.358 2.339,-4.027 0.18,-1.438 0.248,-2.888998 0.203,-4.337998 v -0.694 h 2.903 c -0.195,3.372 -0.195,3.999998 -0.195,5.819998 0,1.999 0.881,3.013 2.612,3.013 a 2.858,2.858 0 0 0 1.614,-0.417 l 0.047,-0.031 v -1.56 l -0.145,0.059 c -0.33,0.165 -0.695,0.248 -1.064,0.242 -0.631,0 -1.352,-0.191 -1.352,-1.704 v -0.686 c 0,-0.974 0,-1.749998 0.148,-4.731998 h 2.284 v -1.61 h -8.303 c -2.564,0 -3.78,1.018 -4.069,3.403 v 0.09 l 1.774,0.456 -0.012,-0.136 z m 24.881,-8.284 a 1.584,1.584 0 0 0 -1.048,-0.136 c 0.06,-0.338 0.016,-0.685 -0.125,-0.998 a 3.136,3.136 0 0 1 -0.109,-0.366 l 1.044,-2.928 h -0.358 l -1.38,2.967 c -0.491,0.74 -0.39,1.469 0.23,1.949 l 0.031,0.023 0.07,0.051 c 0.357,0.271 0.788,0.43 1.236,0.456 a 1.854,1.854 0 0 0 1.306,-0.667 l 0.171,-0.175 h -0.245 a 2.325,2.325 0 0 1 -0.823,-0.176 z"
     id="path22" />
  <path
     fill="#94b43b"
     d="m 88.349177,87.665402 c -0.46,0.269 -1.404,0.916 -1.404,1.664 a 0.858,0.858 0 0 0 0.574,0.799 0.869,0.869 0 0 0 0.268,0.043 0.976,0.976 0 0 0 0.581,-0.199 1.511,1.511 0 0 0 0.589,-1.247 c 0,-0.207 0,-0.417 -0.055,-1.037 -0.054,-0.62 -0.097,-1.559 -0.199,-3.286 v -0.093 h -0.35 z m 30.996003,6.961 a 18.91,18.91 0 0 0 -2.655,-2.026 c -1.193,-0.78 -2.218,-1.478 -2.849,-2.569 l -0.098,-0.172 -0.081,0.18 c -0.636,1.376 -1.014,3.898 -1.014,5.566 0,4.05 1.649,6.235998 3.337,8.095998 l 0.249,0.288 c 1.224,1.403 2.612,2.998 3.547,5.753 l 0.039,0.113 0.105,-0.054 c 1.747,-0.928 2.967,-3.629 2.967,-6.568 0,-3.441998 -1.228,-6.415998 -3.547,-8.606998 z m -0.566,8.661998 -0.514,-1.022 c -1.399,-2.766998 -2.729,-5.386998 -3.415,-8.527998 a 21.961,21.961 0 0 1 5.648,11.603998 c -0.105,-5.920998 -2.373,-9.491998 -4.7,-12.168998 3.94,2.288 6.104,5.846 6.104,10.059998 0,2.806 -1.107,4.455 -1.583,5.036 a 22.545,22.545 0 0 0 -3.559,-5.2 l -0.113,-0.144 c -1.481,-1.871 -2.876,-3.636998 -2.876,-7.319998 0,-0.511 0,-0.803 0.046,-1.458 a 22.463,22.463 0 0 0 4.795,9.253998 l 0.518,0.592 z M 49.596177,89.801402 c 1.349,-1.431 2.062,-3.508 2.062,-5.945 a 14.45,14.45 0 0 0 -0.304,-3.118 l -0.067,-0.296 -0.124,0.273 c -1.232,2.65 -3.637,4.361 -6.132,4.361 -0.39,0 -1.286,-0.066 -1.754,-0.592 a 1.443,1.443 0 0 0 1.709,-0.902 c 0.067,-0.18 0.097,-0.372 0.088,-0.564 0,-1.075 -0.807,-1.808 -2.054,-1.859 a 3.224,3.224 0 0 0 -2.42,0.951 5.329,5.329 0 0 0 -1.505,3.871 c 0,3.375 2.452,5.823 5.847,5.823 a 6.343,6.343 0 0 0 4.654,-2.003 z m -7.679,-6.295 c 0,1.508 1.278,2.561 3.118,2.561 2.261,0 3.75,-0.959 4.99,-2.062 -0.89,2.288 -2.994,3.968 -5.04,3.968 -1.634,0 -2.706,-0.605 -3.477,-1.949 l -0.464,-0.815 0.277,0.896 c 0.557,1.778 1.949,2.881 3.664,2.881 2.338,0 4.389,-1.376 5.683,-3.8 -0.6,3.508 -2.729,5.605 -5.734,5.605 a 4.706,4.706 0 0 1 -3.44,-1.378 4.71,4.71 0 0 1 -1.378,-3.44 c 0,-2.222 1.279,-3.964 2.908,-3.964 h 0.113 a 1.398,1.398 0 0 0 -1.22,1.497 z m 11.046,34.686998 a 1.533,1.533 0 0 0 -1.508,-1.509 1.385,1.385 0 0 0 -1.337,0.78 1.221,1.221 0 0 1 -0.066,-0.538 6.271,6.271 0 0 1 0.604,-1.999 c 0.304,-0.702 0.553,-1.427 0.745,-2.168 0.698,1.17 2.315,2.012 3.972,2.012 1.485,0 3.39,-0.714 4.057,-2.273 l 0.047,-0.109 -0.113,-0.027 c -3.547,-0.928 -4.354,-4.198 -5.211,-7.663 a 53.745,53.745 0 0 0 -0.78,-2.916 l -0.043,-0.129 -0.113,0.078 c -5.52,3.875 -7.877,7.352 -7.877,11.631 0,4.787 2.572,6.927 5.121,6.927 1.47,0.012 2.503,-0.854 2.503,-2.097 z m -2.1,-13.432 c -2.253,3.598 -3.298,7.246 -3.021,10.579 l 0.07,0.865 0.129,-0.857 c 0.468,-3.021 1.742,-7.297 3.944,-10.416 -0.136,3.267 1.03,7.095 3.255,7.835 l 0.48,0.16 -0.39,-0.331 c -1.481,-1.298 -2.678,-4.771 -2.18,-7.554 0.92,4.463 2.379,6.907 4.678,7.865 a 4.201,4.201 0 0 1 -2.467,0.866 3.5,3.5 0 0 1 -2.62,-1.025 c -0.92,-0.94 -1.39,-2.487 -1.399,-4.596 v -0.39 h -0.206 v 0.39 a 15.943,15.943 0 0 1 -1.384,6.4 c -0.39,0.916 -0.67,1.641 -0.67,2.44 a 2.373,2.373 0 0 0 0.865,1.949 c 0.296,0.22 0.653,0.342 1.021,0.351 a 2.68,2.68 0 0 1 -2.019,-0.288 c -1.645,-0.889 -2.623,-2.994 -2.623,-5.629 0.011,-3.149 1.73,-6.404 4.537,-8.614 z m 34.679,25.48 a 6.136,6.136 0 0 0 -3.313,0.986 5.824,5.824 0 0 0 -3.212,-0.986 c -2.463,0 -4.12,1.17 -4.12,2.912 a 2.258,2.258 0 0 0 0.693,1.589 2.256,2.256 0 0 0 1.619,0.621 c 1.052,0 1.707,-0.499 1.707,-1.306 a 0.971,0.971 0 0 0 -0.705,-0.969 0.972,0.972 0 0 0 -1.112,0.447 1.03,1.03 0 0 0 -0.058,0.912 1.286,1.286 0 0 1 -1.138,-1.345 c 0,-1.189 1.142,-1.949 2.911,-1.949 a 4.962,4.962 0 0 1 2.655,0.714 c -0.83,0.842 -1.653,1.878 -1.653,3.2 a 2.415,2.415 0 0 0 3.375,2.384 2.423,2.423 0 0 0 1.447,-2.384 c 0,-1.318 -0.823,-2.339 -1.653,-3.2 a 5.455,5.455 0 0 1 2.756,-0.714 c 1.68,0 2.81,0.78 2.81,1.949 a 1.288,1.288 0 0 1 -1.138,1.345 1.018,1.018 0 0 0 -0.054,-0.912 0.954,0.954 0 0 0 -0.815,-0.483 0.933,0.933 0 0 0 -0.732,0.274 0.941,0.941 0 0 0 -0.274,0.731 c 0,0.807 0.655,1.306 1.712,1.306 a 2.246,2.246 0 0 0 1.616,-0.622 2.225,2.225 0 0 0 0.691,-1.588 c -0.012,-1.715 -1.649,-2.912 -4.015,-2.912 z m -3.313,2.245 c 0.943,0.846 1.403,1.688 1.403,2.573 0,1.111 -0.705,1.606 -1.403,1.606 -0.698,0 -1.407,-0.495 -1.407,-1.606 0,-0.885 0.46,-1.727 1.407,-2.569 z"
     id="path24" />
  <path
     fill="#94b43b"
     d="m 65.768177,123.4164 c 2.99,0 5.987,-1.224 8.903,-3.637 l 0.144,-0.124 -0.179,-0.055 c -2.526,-0.756 -4.65,-1.61 -6.521,-2.362 -3.006,-1.204 -5.376,-2.159 -7.917,-2.159 -3.867,0 -7.13,2.506 -7.13,5.457 a 2.014,2.014 0 0 0 2.008,2.159 c 0.92,0 1.56,-0.534 1.56,-1.306 a 1.202,1.202 0 0 0 -0.613,-1.107 c 0.78,0 1.704,0.48 2.85,1.064 1.797,0.932 4.042,2.07 6.895,2.07 z m -0.39,-4.981 c -1.98,-0.488 -3.847,-0.948 -5.496,-0.948 a 8.763,8.763 0 0 0 -3.056,0.511 l -0.752,0.324 0.81,-0.129 c 2.402,-0.39 4.573,0.222 7.083,0.924 a 37.915,37.915 0 0 0 5.828,1.271 108.87,108.87 0 0 1 -2.885,0.062 c -2,0 -5.126,-0.191 -7.078,-1.014 3.843,2.113 7.503,2.035 10.738,1.949 a 11.88,11.88 0 0 1 -4.817,1.084 c -2.386,0 -4.39,-0.998 -6.155,-1.879 -1.275,-0.635 -2.378,-1.169 -3.333,-1.169 -1.197,0 -1.949,0.421 -2.202,1.255 a 0.242,0.242 0 0 1 0,-0.051 c 0,-3.149 3.652,-4.615 6.123,-4.615 2.257,0 5.068,1.17 7.796,2.277 1.091,0.452 2.14,0.88 3.118,1.216 a 31.878,31.878 0 0 1 -5.722,-1.068 z m -16.858,-14.73 c 1.688,-1.879 3.337,-4.049998 3.337,-8.099998 0,-1.661 -0.39,-4.194 -1.014,-5.566 l -0.082,-0.18 -0.097,0.172 c -0.632,1.091 -1.657,1.777 -2.85,2.569 a 18.859,18.859 0 0 0 -2.654,2.026 c -2.339,2.191 -3.543,5.165 -3.543,8.606998 0,2.939 1.216,5.64 2.962,6.568 l 0.11,0.054 0.035,-0.113 c 0.935,-2.751 2.338,-4.346 3.543,-5.749 z m -2.612,-0.304 a 22.441,22.441 0 0 0 4.795,-9.253998 c 0.047,0.655 0.047,0.947 0.047,1.458 0,3.683 -1.396,5.456998 -2.877,7.323998 l -0.105,0.136 a 22.537,22.537 0 0 0 -3.567,5.204 c -0.475,-0.581 -1.578,-2.233 -1.578,-5.036 0,-4.217998 2.159,-7.771998 6.1,-10.059998 -2.339,2.677 -4.596,6.236 -4.701,12.168998 a 21.946,21.946 0 0 1 5.652,-11.603998 c -0.694,3.118 -2.015,5.749 -3.407,8.508998 l -0.526,1.041 -0.351,0.701 z m 0.434,-20.023998 0.241,-0.125 c 3.695,-1.902 6.28,-6.314 6.28,-10.734 0,-3.064 -1.17,-5.032 -2.129,-6.627 -0.635,-1.06 -1.169,-1.972 -1.169,-2.923 -0.016,-0.19 0.015,-0.382 0.09,-0.558 l 0.132,-0.268 -0.269,0.128 c -2.947,1.427 -4.775,4.713 -4.775,8.576 0,1.867 0.519,3.706 1.025,5.488 0.507,1.781 0.983,3.481 0.983,5.207 a 4.455,4.455 0 0 1 -0.293,1.559 l -0.117,0.277 z m 0.693,-13.771 c 0,2.16 0.62,5.555 1.614,8.868 a 64.478,64.478 0 0 1 -0.604,-8.868 23.07,23.07 0 0 1 0.39,-4.288 46.49,46.49 0 0 1 0.904,6.17 c 0.14,1.357 0.296,2.96 0.39,4.565 l 0.05,0.78 0.152,-0.76 c 0.24,-1.519 0.34,-3.056 0.3,-4.592 a 41.671,41.671 0 0 0 -0.845,-5.94 c 1.59,2.728 2.451,4.704 2.451,6.996 0,3.508 -1.383,6.486 -4.112,8.911 0,-1.84 -0.51,-3.625 -1.013,-5.352 -0.503,-1.727 -0.998,-3.442 -0.998,-5.215 a 9.858,9.858 0 0 1 1.692,-5.828 26.376,26.376 0 0 0 -0.37,4.545 v 0.008 z m 9.538,-19.985 c 0,2.054 0.866,4.799 2.803,6.303 l 0.02,0.02 h 0.027 c 2.607,0.39 4.642,2.073 4.833,3.328 l 0.027,0.18 0.14,-0.121 a 4.369,4.369 0 0 0 1.443,-3.087 3.141,3.141 0 0 0 -2.339,-3.068 c 3.465,-4.038 3.734,-9.27 3.734,-10.79 0,-6.103 -3.176,-8.836 -6.326,-8.836 -2.502,0 -4.319,1.626 -4.319,3.867 a 2.928,2.928 0 0 0 3.013,2.966 3.77,3.77 0 0 0 1.443,-0.234 19.885,19.885 0 0 1 -1.832,2.928 c -1.306,1.847 -2.667,3.75 -2.667,6.544 z m 5.754,4.015 c 1.695,0.39 2.63,1.306 2.63,2.612 a 2.729,2.729 0 0 1 -0.444,1.582 c -0.705,-1.064 -1.61,-1.879 -3.508,-2.362 a 3.072,3.072 0 0 1 2.857,0.507 l 0.328,0.257 -0.172,-0.39 c -0.541,-1.17 -1.789,-1.73 -3.367,-1.5 4.053,-7.445 5.32,-12.969 3.769,-16.422 l -0.328,-0.725 0.133,0.78 c 0.499,2.938 0.436,7.359 -4.436,15.61 -0.199,-3.862 0.78,-5.905 1.72,-7.881 a 15.643,15.643 0 0 0 1.558,-4.518 c -0.456,1.56 -1.364,2.71 -2.05,3.863 -1.236,2.082 -2.514,4.233 -2.339,8.575 a 7.769,7.769 0 0 1 -1.134,-4.03 c 0,-2.487 1.364,-4.467 2.686,-6.385 1.169,-1.668 2.233,-3.243 2.233,-4.962 0,-0.947 -0.58,-1.606 -1.407,-1.606 a 1.306,1.306 0 0 0 -0.9,2.253 c 0.275,0.237 0.626,0.367 0.99,0.367 a 3.032,3.032 0 0 1 -1.497,0.292 2.063,2.063 0 0 1 -2.004,-2.16 c 0,-1.796 1.298,-2.958 3.31,-2.958 2.611,0 5.422,2.48 5.422,7.928 a 17.1,17.1 0 0 1 -4.117,11.105 l -0.105,0.129 z m -19.104,10.544 c 2.085,0 3.835,-1.243 5.527,-2.444 1.5,-1.068 2.92,-2.074 4.412,-2.074 h 0.047 l 0.031,-0.035 c 1.56,-1.773 2.635,-4.708 2.635,-7.297 0,-4.958 -2.962,-7.979 -5.823,-8.033 h -0.137 l 0.036,0.129 a 6.45,6.45 0 0 1 0.249,1.68 6.214,6.214 0 0 1 -0.64,2.576 8.576,8.576 0 0 0 -0.814,3.446 6.588,6.588 0 0 0 -3.617,-1.17 5.644,5.644 0 0 0 -2.152,0.312 l -0.046,0.024 v 0.05 a 6.3,6.3 0 0 0 3.079,6.276 4.918,4.918 0 0 0 -1.594,1.17 c -0.153,-0.823 -0.87,-1.342 -1.883,-1.342 a 3.186,3.186 0 0 0 -3.118,3.317 c -0.008,1.953 1.633,3.415 3.808,3.415 z m -0.873,-5.75 a 0.951,0.951 0 0 0 -0.335,0.745 1.168,1.168 0 0 0 1.208,1.204 c 0.686,0 1.083,-0.39 1.559,-0.853 a 5.098,5.098 0 0 1 3.192,-1.657 l 0.355,-0.054 -0.331,-0.14 c -3.204,-1.334 -4.245,-3.801 -4.16,-5.695 a 5.166,5.166 0 0 1 1.209,-0.133 c 1.855,0 3.446,0.897 4.736,2.67 l 0.39,0.534 -0.207,-0.628 a 6.547,6.547 0 0 1 -0.245,-2.077 8.965,8.965 0 0 1 0.803,-3.602 6.15,6.15 0 0 0 0.6,-2.37 4.514,4.514 0 0 0 -0.11,-1.032 c 0.094,0.023 0.2,0.062 0.285,0.093 l 0.086,0.027 c 2.257,0.924 3.55,3.434 3.55,6.884 a 11.493,11.493 0 0 1 -1.297,5.032 c 0.53,-4.724 0.12,-7.944 -1.275,-10.107 l -0.354,-0.546 0.171,0.628 a 23.214,23.214 0 0 1 0.522,9.861 51.843,51.843 0 0 1 -1.376,-6.439 l -0.124,-0.842 -0.078,0.85 c -0.23,2.49 0.316,5.278 0.65,6.697 -1.656,-1.891 -4.092,-4.007 -6.294,-4.627 l -0.71,-0.203 0.628,0.39 c 2.311,1.422 4.436,3.29 5.652,4.95 -1.17,-0.631 -2.308,-1.337 -3.403,-2.023 -0.39,-0.253 -0.78,-0.503 -1.17,-0.74 l -0.53,-0.324 0.39,0.476 a 16.369,16.369 0 0 0 4.288,3.297 c -0.87,0.02 -2.464,0.129 -3.567,0.819 -0.39,0.23 -0.713,0.456 -1.044,0.678 -1.743,1.17 -2.896,1.918 -4.062,1.033 l -0.682,-0.523 0.542,0.667 c 1.368,1.672 3.227,0.483 5.379,-0.889 l 0.226,-0.144 a 6.057,6.057 0 0 1 3.262,-0.807 c -0.847,0.46 -1.664,0.974 -2.447,1.536 -1.614,1.103 -3.282,2.245 -4.986,2.245 -1.63,0 -2.81,-1.052 -2.81,-2.506 0,-1.205 0.78,-2.448 2.09,-2.46 a 0.832,0.832 0 0 0 -0.176,0.106 z m 52.376,11.694 c 0.752,0 1.239,-0.292 1.874,-0.83 a 3.814,3.814 0 0 1 2.846,-1.08 c 1.699003,0 3.410003,0.932 3.410003,3.013 0,2.144 -1.43,3.337 -4.938003,4.116 l -0.982,0.219 v 1.407 l 1.329,-0.222 c 2.705003,-0.678 6.303003,-1.996 6.303003,-5.621 0,-2.662 -2.105,-4.521 -5.122003,-4.521 -2.853,0 -5.523,2.073 -5.523,3.013 0,0.26 0.362,0.506 0.803,0.506 z m 0.389,-1.31 a 0.253,0.253 0 0 1 0.154,-0.23 0.25,0.25 0 1 1 0.096,0.48 0.24,0.24 0 0 1 -0.225,-0.17 0.237,0.237 0 0 1 -0.009,-0.099 l -0.016,0.02 z m 1.24,10.124 -1.006,-0.203 c -1.216,-0.242 -1.423,-0.39 -1.423,-0.6 0,-0.211 0.113,-0.351 0.725,-0.503 l 0.078,-0.02 v -1.368 l -0.128,0.035 c -1.583,0.441 -2.284,1.025 -2.284,1.906 0,0.881 0.923,1.396 2.993,1.754 l 1.002,0.203 c 2.639,0.553 3.071,1.388 3.301,1.836 0.106,0.203 0.195,0.39 0.437003,0.39 0.242,0 0.3,-0.476 0.3,-0.706 a 1.613,1.613 0 0 0 -0.164,-0.604 c -0.226003,-0.39 -0.896003,-1.524 -3.831003,-2.12 z"
     id="path26" />
  <path
     fill="#94b43b"
     d="m 96.437177,80.964402 v -0.389 l -1.209,-0.242 v 0.647 c -1.364,0.296 -2.21,0.604 -2.21,1.169 v 0.102 h 5.726 v -0.102 c 0,-0.565 -0.881,-0.877 -2.307,-1.185 z m -33.634,-1.824 c 2.888,0 3.897,-1.083 3.897,-2.011 v -0.101 h -0.729 l -2.553,-7.952 c 0.89,-0.196 1.795,-0.306 2.705,-0.328 a 1.387,1.387 0 0 0 2.561,0 c 0.91,0.016 1.817,0.125 2.705,0.324 l -2.553,7.956 h -0.729 v 0.113 c 0,0.927 1.03,2.011 3.898,2.011 2.729,0 3.719,-1.037 3.719,-2.011 v -0.102 h -0.601 l -2.338,-7.57 0.358,0.121 0.417,-1.25 -0.097,-0.028 a 20.021,20.021 0 0 0 -4.826,-0.908 1.306,1.306 0 0 0 -1.228,-0.807 1.411,1.411 0 0 0 -1.25,0.799 c -1.627,0.1 -3.234,0.406 -4.783,0.908 l -0.098,0.027 0.417,1.252 0.359,-0.121 -2.339,7.569 h -0.631 v 0.11 c 0,0.962 0.978,1.999 3.718,1.999 z m -2.226,-2.112 1.82,-6.35 v 6.35 z m 2.627,0 v -6.366 l 1.87,6.366 z m 6.56,0 1.87,-6.366 v 6.366 z m 2.678,0 v -6.366 l 1.867,6.366 z m 22.787,1.282 1.208,0.241 v -3.948 c 2.452,-0.53 4.818003,-1.224 4.818003,-3.197 v -0.113 H 90.407177 v 0.102 c 0,1.949 2.37,2.646 4.822,3.196 z m 2.662,-21.512 c -0.905,0.705 -1.809,0.904 -3.508,0.904 -2.862,0 -6.023,-1.707 -7.43,-1.707 -1.2,0 -1.703,0.705 -1.906,2.412 1.509,0 5.925,2.207 9.035,2.207 2.304,0 3.606,-0.803 3.809,-3.816 z m -10.684,1.407 a 0.828,0.828 0 0 1 -0.651,-0.905 c 0,-0.55 0.3,-0.853 0.701,-0.803 0.554,0.102 0.702,0.554 0.702,1.057 a 0.598,0.598 0 0 1 -0.199,0.53 0.594,0.594 0 0 1 -0.553,0.12 z m 1.757,0.553 -0.253,-0.752 v 0.65 l -0.503,-0.151 v -1.707 l 0.503,0.152 c 0.503,0.152 0.702,0.35 0.702,0.654 a 0.39,0.39 0 0 1 -0.3,0.39 l 0.389,0.951 z m 1.205,0.39 -0.503,-0.152 v -1.735 l 0.55,0.203 a 1.059,1.059 0 0 1 0.807,1.103 c -0.008,0.542 -0.46,0.694 -0.862,0.593 z m 2.058,0.503 -1.006,-0.254 v -1.656 l 0.955,0.253 v 0.3 l -0.452,-0.152 v 0.453 l 0.39,0.05 v 0.3 l -0.39,-0.101 v 0.39 l 0.503,0.097 z m 1.606,0.25 -0.604,-0.051 -0.452,-1.306 0.05,1.255 -0.3,-0.05 v -1.657 l 0.655,0.101 0.39,1.255 -0.051,-1.204 h 0.304 l 0.008,1.656 z m -22.448,-0.492 c 0,-0.199 -0.101,-0.3 -0.25,-0.3 v 0.6 c 0.149,0 0.25,-0.109 0.25,-0.3 z"
     id="path28" />
  <path
     fill="#94b43b"
     d="m 90.161177,57.702402 v 1.204 c 0.199,0.05 0.351,-0.05 0.351,-0.452 0,-0.55 -0.152,-0.702 -0.351,-0.752 z m -14.005,-0.554 -0.101,0.909 0.249,-0.102 z"
     id="path30" />
  <path
     fill="#94b43b"
     d="m 70.481177,60.613402 c 3.118,0 7.53,-2.307 9.035,-2.307 -0.199,-1.707 -0.702,-2.409 -1.906,-2.409 -1.458,0 -4.619,1.805 -7.43,1.805 -1.254,0 -2.61,-0.2 -3.507,-0.905 0.194,3.013 1.5,3.816 3.808,3.816 z m 6.026,-3.862 0.39,1.559 v -1.657 l 0.499,-0.101 c 0.502,-0.102 0.806,0.101 0.806,0.6 0,0.499 -0.253,0.807 -0.806,1.006 l -0.499,0.152 -0.503,0.148 -0.051,-0.25 -0.351,0.152 -0.05,0.3 -0.39,0.149 0.351,-1.856 z m -2.007,0.65 1.169,-0.35 v 0.35 l -0.304,0.051 v 1.403 l -0.499,0.153 v -1.404 l -0.351,0.148 -0.015,-0.35 z m -1.209,0.351 0.554,-0.148 a 0.478,0.478 0 0 1 0.655,0.448 0.442,0.442 0 0 1 -0.254,0.39 l 0.39,0.604 -0.554,0.153 -0.3,-0.554 v 0.65 l -0.503,0.153 z m -1.204,0.3 0.955,-0.198 v 0.3 l -0.452,0.05 v 0.39 l 0.452,-0.101 v 0.327 l -0.452,0.051 v 0.452 l 0.502,-0.097 v 0.3 l -1.005,0.199 v -1.672 z m -1.454,0.203 0.553,-0.05 c 0.39,-0.051 0.651,0.05 0.651,0.35 a 0.39,0.39 0 0 1 -0.35,0.39 c 0.198,0 0.39,0.05 0.39,0.35 0,0.301 -0.204,0.504 -0.605,0.554 l -0.65,0.051 0.01,-1.645 z m -0.803,0 h 0.503 v 1.606 h -0.503 v -1.605 z m -1.107,-0.101 0.503,0.05 v 1.357 h 0.39 v 0.3 a 2.474,2.474 0 0 1 -0.905,-0.199 z m 19.98,-0.955 v 0.655 c 0.152,0.05 0.254,-0.051 0.254,-0.25 0,-0.199 -0.051,-0.343 -0.254,-0.405 z"
     id="path32" />
  <path
     fill="#94b43b"
     d="m 73.997177,58.103402 c 0,-0.148 -0.051,-0.3 -0.203,-0.25 v 0.601 c 0.16,-0.047 0.203,-0.148 0.203,-0.35 z m -2.612,0.553 a 0.234,0.234 0 0 0 -0.25,-0.249 v 0.5 a 0.236,0.236 0 0 0 0.235,-0.153 0.239,0.239 0 0 0 0.015,-0.097 z m 15.864,-1.956 c -0.202,-0.05 -0.202,0.25 -0.202,0.65 0,0.301 0,0.605 0.202,0.656 0.203,0.05 0.199,-0.254 0.199,-0.605 0,-0.35 0,-0.65 -0.199,-0.701 z m -7.129,-0.608 c 0.071,0.722 0.24,1.432 0.503,2.109 a 6.995,6.995 0 0 1 3.313,0 8.06,8.06 0 0 0 0.503,-2.11 c 0,-0.802 -0.604,-1.102 -2.21,-1.102 -1.508,0.004 -2.109,0.323 -2.109,1.103 z m 2.511,-0.39 h 0.3 l -0.39,1.056 v 0.55 h -0.503 v -0.55 l -0.39,-1.056 h 0.491 l 0.254,0.752 z m -4.92,1.559 c 0,-0.499 -0.101,-0.499 -0.304,-0.499 v 1.17 c 0.203,-0.13 0.304,-0.23 0.304,-0.67 z m -7.978,71.623998 c 0,0.3 -0.351,0.389 -0.757,0.3 l 0.102,0.553 a 0.974,0.974 0 0 0 1.306,-0.904 c 0,-0.904 -0.952,-1.052 -0.952,-1.559 0,-0.39 0.347,-0.452 0.753,-0.351 l -0.102,-0.554 c -0.701,-0.101 -1.255,0.305 -1.255,0.905 0,0.927 0.905,1.009 0.905,1.61 z m 3.913,-1.205 0.554,-0.152 0.101,0.604 0.503,-0.152 -0.503,-3.06 -0.854,0.25 -0.553,3.364 0.655,-0.199 z m 0.152,-1.505 0.051,-0.654 0.101,-0.051 0.051,0.655 0.097,0.904 -0.39,0.098 z m -2.21,1.556 a 0.389,0.389 0 0 0 0.382,-0.466 0.392,0.392 0 0 0 -0.306,-0.306 0.386,0.386 0 0 0 -0.4,0.165 0.39,0.39 0 0 0 -0.066,0.217 0.367,0.367 0 0 0 0.108,0.282 0.374,0.374 0 0 0 0.282,0.108 z m -14.457,6.428 a 6.72,6.72 0 0 1 -0.702,0.249 v -1.056 l 0.6,-0.098 v -0.502 l -0.6,0.198 v -0.9 l 0.702,-0.101 v -0.503 c -0.39,0.101 -0.803,0.199 -1.306,0.3 v 3.212 c 0.44,-0.074 0.877,-0.174 1.306,-0.3 z m 10.392,-4.269 0.654,-0.253 0.098,0.604 0.502,-0.203 -0.701,-3.009 -0.803,0.3 -0.39,3.509 0.6,-0.25 z m 0.151,-1.457 v -0.753 l 0.098,-0.05 0.101,0.756 0.203,0.752 -0.503,0.199 z m -14.406,4.47 0.199,1.205 h -0.102 l -0.198,-0.905 -0.402,-1.204 -0.503,-0.051 v 2.912 l 0.503,0.097 v -0.951 l -0.199,-1.204 h 0.098 l 0.203,0.904 0.401,1.353 0.499,0.05 v -3.11 h -0.499 z m 4.665,0.199 0.203,-0.05 0.098,0.389 0.452,0.706 0.604,-0.203 -0.853,-1.103 a 1.17,1.17 0 0 0 0.502,-0.955 c 0,-0.503 -0.39,-0.853 -1.103,-0.655 l -0.39,0.102 v 3.212 l 0.503,-0.149 -0.015,-1.294 z m 0,-1.457 c 0.3,-0.098 0.504,0.101 0.504,0.389 a 0.607,0.607 0 0 1 -0.503,0.601 v -0.99 z m 18.574,-4.066 v -0.452 c -0.499,0.203 -0.951,-0.098 -0.951,-1.002 0,-0.803 0.249,-1.204 0.849,-1.204 v -0.503 c -0.779,-0.102 -1.403,0.604 -1.403,1.707 0,1.505 0.803,1.758 1.505,1.454 z m -16.364,4.872 a 0.388,0.388 0 0 0 0.276,-0.665 0.387,0.387 0 0 0 -0.425,-0.084 0.386,0.386 0 0 0 -0.24,0.36 0.389,0.389 0 0 0 0.39,0.389 z m 6.526,-2.058 -0.6,0.301 v -2.861 l -0.503,0.198 v 3.364 l 1.103,-0.452 z m -2.709,1.708 c 0.499,0 1.103,-0.503 1.103,-1.509 v -2.339 l -0.604,0.25 v 2.409 c 0,0.39 -0.199,0.604 -0.39,0.604 -0.097,0 -0.199,-0.101 -0.199,-0.3 v -2.413 l -0.503,0.203 v 2.409 c -0.011,0.382 0.191,0.686 0.593,0.686 z m -2.007,0.097 0.6,-0.25 0.1,0.702 0.504,-0.199 -0.503,-3.118 -0.904,0.39 -0.503,3.465 0.604,-0.253 0.101,-0.737 z m 0.198,-2.159 0.101,-0.047 0.098,0.752 0.101,0.702 -0.499,0.198 0.2,-1.605 z m -7.686,5.071 0.6,-0.051 v -2.658 c 0.101,0 0.553,-0.051 0.553,-0.051 v -0.554 c -0.546,0.112 -1.1,0.179 -1.656,0.203 v 0.491 l 0.503,-0.047 z m 48.197003,-3.512 a 0.387,0.387 0 0 0 0.36,-0.241 0.393,0.393 0 0 0 -0.085,-0.424 0.385,0.385 0 0 0 -0.425,-0.085 0.39,0.39 0 0 0 -0.24,0.36 0.364,0.364 0 0 0 0.108,0.282 0.36,0.36 0 0 0 0.282,0.108 z m -1.154,0.3 -0.803,-0.253 v -1.002 l 0.702,0.249 v -0.499 l -0.702,-0.253 v -0.854 l 0.803,0.351 v -0.499 l -1.306,-0.604 v 3.415 l 1.306,0.503 z m 3.516,2.007 0.499,-3.063 -0.499,-0.199 -0.304,1.808 -0.051,0.85 -0.148,-0.047 v -0.853 l -0.253,-2.058 -0.55,-0.254 0.401,3.466 z m -6.229003,-3.816 h 0.203 l 0.05,0.304 0.39,1.205 0.702003,0.3 -0.753003,-1.949 a 0.977,0.977 0 0 0 0.39,-0.803 c 0,-0.503 -0.199,-0.904 -1.005,-1.208 l -0.499,-0.199 v 3.414 l 0.499,0.199 z m 0,-1.606 a 0.618,0.618 0 0 1 0.503,0.655 c 0,0.39 -0.3,0.55 -0.503,0.448 z m 8.236003,5.523 -0.803,-0.202 v -0.951 l 0.6,0.198 v -0.502 l -0.6,-0.148 v -0.854 l 0.803,0.3 v -0.503 l -1.306,-0.452 v 3.216 l 1.306,0.452 z m 3.009,1.256 c 0.503,0 0.854,-0.39 0.854,-1.103 v -2.16 h -0.55 v 2.257 c 0,0.3 -0.202,0.39 -0.304,0.39 -0.199,0 -0.3,-0.148 -0.3,-0.499 v -2.21 l -0.6,-0.102 v 2.312 c 0,0.811 0.397,1.115 0.9,1.115 z m 1.758,-1.306 -0.152,-1.204 h 0.102 l 0.401,1.707 0.406,-0.101 0.347,-1.809 0.101,-0.051 -0.148,1.158 v 1.002 l 0.503,-0.25 v -2.713 l -0.605,0.102 -0.3,1.305 -0.05,0.702 h -0.102 l -0.05,-0.651 -0.402,-1.204 -0.553,0.05 v 3.06 l 0.502,-0.051 z m -16.016003,-3.867 0.199,-0.701 0.604,0.249 v 0.756 l 1.403,0.601 v -0.651 l -0.803,-0.304 v -0.901 l 0.604,0.25 v -0.503 l -0.604,-0.25 v -0.802 l 0.803,0.35 v -0.553 l -1.754,-0.702 -0.904,2.963 z m 0.553,-1.949 0.149,-0.65 0.101,0.046 v 1.61 l -0.452,-0.203 z m 11.499003,5.566 h 0.199 l 0.051,0.25 0.35,0.955 0.604,0.148 -0.604,-1.505 a 0.958,0.958 0 0 0 0.39,-0.803 1.144,1.144 0 0 0 -0.904,-1.204 l -0.6,-0.152 v 3.263 l 0.502,0.101 z m 0,-1.605 a 0.5,0.5 0 0 1 0.367,0.168 0.525,0.525 0 0 1 0.132,0.381 c 0,0.39 -0.199,0.604 -0.499,0.604 z m -56.577003,2.358 c 0.19,0.109 0.392,0.192 0.604,0.249 v -2.861 l -0.604,-0.152 z m 30.976,-8.085 -0.706,0.051 v -1.002 h 0.605 v -0.503 l -0.605,0.051 v -0.854 l 0.706,-0.05 v -0.503 l -1.204,0.051 v 3.313 l 1.204,-0.051 z m 1.002,-0.549 -0.101,-1.407 h 0.101 l 0.203,1.005 0.202,0.803 h 0.398 l 0.203,-0.803 0.198,-0.904 h 0.102 l -0.102,1.403 v 1.056 l 0.503,0.051 v -3.262 l -0.6,-0.051 -0.405,1.204 -0.098,0.803 h -0.051 l -0.05,-0.803 -0.402,-1.305 -0.604,-0.051 v 3.313 h 0.503 z m -5.874,0.854 0.553,-0.152 0.102,0.701 0.6,-0.101 -0.6,-3.118 -0.905,0.199 -0.39,3.313 0.55,-0.148 z m 0.152,-2.16 h 0.101 l 0.199,1.505 -0.39,0.101 z m 3.11,0.803 c 0,-1.204 -0.55,-1.606 -1.353,-1.508 l -0.35,0.05 v 3.216 l 0.389,-0.05 c 0.714,-0.102 1.314,-0.503 1.314,-1.708 z m -1.212,-1.017 c 0.39,-0.101 0.705,0.304 0.705,1.107 0,0.6 -0.304,1.103 -0.705,1.103 z m 6.435,-0.39 -0.503,-0.098 v 3.263 l 0.503,0.051 z m 8.634,5.722 a 0.688,0.688 0 0 0 0.635,-0.115 0.691,0.691 0 0 0 0.269,-0.586 v -2.339 l -0.503,-0.152 v 2.409 c 0,0.202 -0.101,0.35 -0.3,0.304 -0.199,-0.047 -0.39,-0.304 -0.39,-0.706 v -2.276 l -0.502,-0.203 v 2.362 c -0.012,0.803 0.288,1.154 0.791,1.302 z m -2.108,-0.803 h 0.101 l 0.9,0.304 v -0.604 l -0.39,-0.102 -0.304,0.102 c 0.39,-0.199 0.503,-0.604 0.503,-1.205 0,-1.204 -0.3,-1.906 -1.001,-1.906 -0.605,0 -0.905,0.702 -0.905,1.606 -0.008,1.103 0.293,1.805 1.096,1.805 z m -0.149,-2.861 c 0.347,0 0.449,0.553 0.449,1.169 0,0.706 -0.102,1.209 -0.39,1.209 -0.39,0 -0.503,-0.605 -0.503,-1.209 -0.012,-0.717 0.105,-1.169 0.444,-1.169 z m -2.362,0.854 a 0.39,0.39 0 1 0 -0.39,-0.39 0.4,0.4 0 0 0 0.024,0.153 0.373,0.373 0 0 0 0.366,0.237 z m -3.044,-0.183 0.55,0.097 v 0.655 l 1.305,0.3 v -0.503 l -0.803,-0.148 v -0.955 l 0.702,0.152 v -0.503 l -0.702,-0.101 v -0.803 l 0.803,0.203 v -0.503 c -0.389,-0.101 -1.204,-0.304 -1.606,-0.351 l -1.005,3.009 0.553,0.102 z m 0.39,-1.357 0.152,-0.604 h 0.05 l -0.05,0.604 v 0.955 l -0.452,-0.051 z m -17.829,-73.820998 c 0,0.904 -0.706,1.605 -1.809,1.605 -0.904,0 -1.505,-0.6 -1.606,-1.606 0.503,0.39 1.606,0.102 1.805,0.904 0.101,-0.802 1.107,-0.802 1.508,-1.407 a 0.908,0.908 0 0 1 0.102,0.503 z"
     id="path34" />
  <path
     fill="#94b43b"
     d="m 69.978177,53.071402 c 0,1.107 -1.006,1.707 -2.308,1.707 -1.005,0 -1.606,-0.39 -1.707,-1.605 0.6,0.604 2.008,0.202 2.206,1.103 0,-1.002 1.407,-1.103 1.708,-1.704 0.1,0.098 0.1,0.3 0.1,0.5 z m -2.409,-1.707 a 1.344,1.344 0 0 1 -1.407,-1.205 0.889,0.889 0 0 1 0.101,-0.499 c 0.39,0.5 1.306,0.3 1.407,1.302 -0.1,-1.001 1.104,-1.204 1.302,-1.403 0.051,1.002 -0.499,1.805 -1.403,1.805 z"
     id="path36" />
  <path
     fill="#94b43b"
     d="m 70.883177,54.677402 c 0,1.306 -1.408,2.109 -2.612,2.109 a 1.64,1.64 0 0 1 -1.707,-1.403 c 0.152,0.148 0.502,0.1 1.508,0.1 0.39,0 0.9,0 1.103,0.5 v -0.39 c 0,-1.002 1.407,-1.306 1.509,-1.906 0.102,0.322 0.17,0.654 0.198,0.99 z m -3.314,-4.919 a 1.169,1.169 0 0 1 -0.702,-1.103 2.86,2.86 0 0 1 0.9,-1.809 c 0,0.803 0.39,1.306 0.39,1.91 a 1.243,1.243 0 0 1 -0.588,1.002 z m 22.187,-19.478 c 2.518,0 5.636,2.425 6.026,9.051 -0.904,0 -1.204,-0.705 -1.306,-1.809 -0.604,-4.217 -2.81,-6.236 -4.416,-6.236 -3.118,0 -0.604,4.919 -3.816,5.62 0,0.804 -0.203,1.81 -0.604,1.81 -0.503,0 -0.702,-0.905 -0.905,-1.607 0,1.103 -0.3,2.008 -0.701,2.008 -0.3,0 -0.6,-0.905 -0.803,-1.708 0,1.006 -0.503,2.008 -1.002,2.008 -0.39,0 -0.904,-1.002 -0.904,-2.008 -0.203,0.803 -0.503,1.708 -0.807,1.708 -0.39,0 -0.702,-0.905 -0.702,-2.008 -0.198,0.702 -0.389,1.606 -0.9,1.606 -0.39,0 -0.604,-1.005 -0.604,-1.808 -3.212,-0.702 -0.702,-5.621 -3.816,-5.621 -1.606,0 -3.812,2.007 -4.416,6.236 -0.102,1.104 -0.39,1.81 -1.306,1.81 0.39,-6.627 3.508,-9.04 6.026,-9.04 3.711,0 1.804,4.619 3.508,4.619 0.701,0 1.306,-0.803 1.906,-1.805 a 1.3,1.3 0 0 0 -0.098,0.6 c 0,0.803 0.803,1.306 2.109,1.306 1.403,0 2.206,-0.502 2.206,-1.305 a 1.25,1.25 0 0 0 -0.101,-0.6 c 0.604,1.001 1.107,1.804 1.91,1.804 1.61,-0.012 -0.203,-4.63 3.516,-4.63 z m -20.09,18.675 c 0.503,-0.199 0.904,-0.702 0.904,-2.109 a 35.728,35.728 0 0 0 1.907,6.237 c 0.502,1.306 1.005,2.108 1.005,2.51 a 0.464,0.464 0 0 1 -0.308,0.499 c -1.489,-1.817 -2.693,-4.526 -3.508,-7.137 z"
     id="path38" />
  <path
     fill="#94b43b"
     d="m 72.286177,37.312402 c -0.149,1.2 -0.702,1.703 -1.505,1.703 0.096,-1.592 0.469,-3.155 1.103,-4.619 0.706,-1.504 1.91,-2.409 2.51,-2.409 0.203,0 0.39,0.102 0.39,0.304 0,0.203 -0.304,0.3 -0.705,0.702 -0.788,0.803 -1.54,2.308 -1.793,4.319 z"
     id="path40" />
  <path
     fill="#94b43b"
     d="m 70.781177,39.819402 c 0.503,0 1.005,-0.3 1.306,-1.505 a 16.856,16.856 0 0 0 -0.102,2.21 v 2.007 c 0,0.702 -0.101,1.606 -1.001,1.708 a 34.512,34.512 0 0 1 -0.203,-4.42 z m 0.3,5.223 c 0.604,0 1.107,-0.503 1.107,-1.708 0.503,4.518 1.708,7.017 2.308,8.736 0.268,0.675 0.437,1.385 0.503,2.108 a 0.555,0.555 0 0 1 -0.39,0.6 26.533,26.533 0 0 1 -3.528,-9.736 z m 1.703,-5.321 c 0.503,0 1.006,-0.304 1.306,-1.61 -0.097,0.904 -0.199,1.61 -0.199,2.109 0,0.705 0.102,1.605 0.102,2.108 0,0.803 -0.102,1.606 -1.006,1.809 a 16.908,16.908 0 0 1 -0.3,-3.118 c -0.02,-0.435 0.013,-0.871 0.097,-1.298 z"
     id="path42" />
  <path
     fill="#94b43b"
     d="m 74.196177,37.312402 c -0.199,1.2 -0.503,1.606 -1.306,1.606 0.199,-2.612 0.701,-4.019 1.606,-5.325 0.202,-0.3 0.503,-0.6 0.803,-0.6 a 0.324,0.324 0 0 1 0.304,0.3 c 0,0.203 -0.102,0.3 -0.203,0.503 -0.702,0.904 -1.006,2.417 -1.204,3.516 z m -1.205,7.527 c 0.6,-0.098 1.006,-0.6 1.103,-1.805 0.3,2.912 1.306,5.824 2.007,7.73 0.244,0.606 0.376,1.252 0.39,1.906 a 0.911,0.911 0 0 1 -0.3,0.705 c -1.493,-2.109 -2.799,-6.127 -3.2,-8.536 z m 1.707,-5.921 c 0.6,0 1.103,-0.503 1.306,-1.407 a 14.797,14.797 0 0 0 -0.101,2.007 c 0,0.904 0.101,1.707 0.101,2.21 0,0.904 -0.604,1.505 -1.204,1.505 a 24.15,24.15 0 0 1 -0.102,-2.608 z m 0.905,-3.715 c 0.199,0 0.39,0.3 0.39,1.002 0,0.904 -0.304,1.906 -1.205,1.906 0.312,-2.506 0.511,-2.908 0.815,-2.908 z m -0.706,8.934 c 0.503,-0.101 1.107,-0.39 1.205,-1.606 0.202,2.912 1.005,5.422 1.508,7.227 0.264,0.643 0.433,1.32 0.503,2.011 a 0.71,0.71 0 0 1 -0.304,0.6 c -1.407,-2.124 -2.51,-5.823 -2.912,-8.232 z m 2.81,-5.523 c 0,1.306 0.102,2.312 0.102,2.912 0,0.904 -0.503,1.508 -0.905,1.508 a 23.19,23.19 0 0 1 -0.3,-3.617 c 0,-1.505 0.203,-1.805 0.503,-1.805 0.3,0 0.6,0.3 0.6,1.002 z m 0.406,16.768 0.097,-0.705 0.604,-1.002 -1.107,0.904 -0.3,0.5 h -0.199 l 0.098,-0.702 0.807,-0.702 -1.006,0.3 -0.203,0.3 h -0.3 l 0.39,-0.6 2.007,-0.803 0.304,-2.21 c 0.098,0.101 0.199,0.101 0.39,0.101 0.304,0 0.39,0 0.503,-0.1 l -0.503,2.21 1.306,0.802 0.203,0.803 h -0.203 l -0.503,-0.503 -0.9,-0.3 -0.905,1.103 -0.389,0.604 z m -1.209,-11.646 c 0.39,0 0.905,-0.39 1.006,-1.407 0.102,1.005 0.503,2.728 0.503,3.414 0,0.686 -0.3,1.306 -0.706,1.306 -0.401,-0.904 -0.6,-2.308 -0.803,-3.313 z m 2.413,4.015 c 0,0.39 0.199,0.802 0.6,0.802 0.301,0 0.601,-0.3 0.803,-0.701 0.39,0.39 0.605,1.103 0.605,2.409 a 1.201,1.201 0 0 1 -0.905,-1.205 c -0.101,0.803 -0.39,1.205 -0.705,1.205 -0.199,0 -0.3,-0.3 -0.3,-0.702 v -0.701 c -0.098,0.39 -0.702,0.9 -1.205,0.701 0.3,-0.904 0.706,-1.606 1.107,-1.808 z"
     id="path44" />
  <path
     fill="#94b43b"
     d="m 80.120177,45.443402 c 1.103,0 1.404,0.39 1.404,1.906 v 0.604 c -0.503,0 -0.803,-0.503 -0.905,-1.006 -0.101,0.702 -0.39,1.006 -0.6,1.006 -0.304,0 -0.39,-0.203 -0.39,-0.705 v -0.6 c -0.39,0.7 -0.803,0.7 -1.107,0.7 0.394,-1.504 0.795,-1.905 1.598,-1.905 z m 2.109,-5.122 c 0.6,0 1.002,-0.6 1.002,-1.403 0.202,0.803 0.6,1.103 0.904,1.103 0.39,0 0.803,-0.701 0.803,-1.508 0.101,0.705 0.503,1.306 1.002,1.306 0,1.107 -0.199,1.707 -0.702,1.707 -0.3,0 -0.39,-0.5 -0.6,-1.306 0,0.807 -0.39,1.606 -0.807,1.606 -0.3,0 -0.499,-0.3 -0.702,-1.2 -0.097,0.9 -0.503,1.601 -0.9,1.601 -0.304,0 -0.803,-0.701 -0.803,-1.602 -0.203,0.9 -0.39,1.2 -0.706,1.2 -0.39,0 -0.803,-0.779 -0.803,-1.605 -0.202,0.807 -0.3,1.306 -0.6,1.306 -0.503,0 -0.705,-0.6 -0.705,-1.707 0.389,0 0.904,-0.6 1.005,-1.306 0,0.806 0.39,1.508 0.803,1.508 0.3,0 0.702,-0.3 0.904,-1.103 0,0.803 0.402,1.403 0.905,1.403 z"
     id="path46" />
  <path
     fill="#94b43b"
     d="m 82.229177,43.334402 c 0.499,0 1.002,-0.701 1.002,-1.508 0.203,0.807 0.39,1.208 0.803,1.208 0.413,0 0.702,-0.705 0.702,-1.61 a 4.52,4.52 0 0 1 0.806,2.413 c 0,0.702 -0.202,0.904 -0.389,0.904 -0.301,0 -0.702,-0.39 -0.803,-1.305 0,1.103 -0.301,1.606 -0.702,1.606 -0.199,0 -0.503,-0.39 -0.702,-1.108 0,0.905 -0.304,1.509 -0.701,1.509 -0.304,0 -0.604,-0.604 -0.604,-1.508 -0.199,0.705 -0.503,1.106 -0.702,1.106 -0.39,0 -0.706,-0.502 -0.706,-1.605 -0.097,0.904 -0.502,1.305 -0.802,1.305 -0.199,0 -0.39,-0.202 -0.39,-0.904 a 4.538,4.538 0 0 1 0.803,-2.413 c 0,0.905 0.304,1.61 0.701,1.61 0.398,0 0.604,-0.39 0.807,-1.208 -0.027,0.807 0.472,1.508 0.877,1.508 z m -2.463,16.312 c 0,-0.389 0.355,-0.751 1.169,-1.169 a 3.17,3.17 0 0 1 -0.705,0.905 c 0.604,-0.39 0.502,-0.3 0.803,-0.503 -0.39,0.904 -0.753,1.006 -0.951,1.006 -0.199,0 -0.316,-0.086 -0.316,-0.238 z m 0.705,0.905 c 0,-0.39 0.3,-0.904 1.002,-1.606 -0.199,0.605 -0.3,0.803 -0.499,1.407 0.3,-0.502 0.499,-0.705 0.701,-1.005 -0.101,1.407 -0.553,1.656 -0.853,1.656 -0.203,0 -0.351,-0.148 -0.351,-0.452 z m 1.758,2.167 c -0.39,0 -0.705,-0.199 -0.705,-0.904 a 5.597,5.597 0 0 1 0.389,-1.855 c 0.171,0.45 0.273,0.922 0.304,1.403 a 4.89,4.89 0 0 1 0.301,-1.403 c 0.234,0.591 0.365,1.219 0.389,1.855 0.012,0.698 -0.28,0.904 -0.678,0.904 z m 1.052,-31.082 c 0.022,0.323 0.072,0.642 0.152,0.955 0,0.39 -0.604,0.702 -1.204,0.702 -0.39,0 -1.006,-0.3 -1.006,-0.6 0,-0.3 0.351,-1.006 0.351,-1.61 a 0.782,0.782 0 0 0 -0.101,-0.39 c 0.207,0.142 0.454,0.213 0.705,0.203 a 0.853,0.853 0 0 0 0.702,-0.3 c -1.205,0.35 -1.657,-0.351 -1.758,-0.955 -0.452,0.202 -0.904,0.05 -1.002,-0.3 a 3.53,3.53 0 0 0 -0.655,0.3 c -0.198,-0.854 0.102,-1.053 1.17,-1.205 a 0.725,0.725 0 0 1 -0.199,-0.503 c 0,-0.502 0.553,-0.752 1.809,-0.752 0.549,0 0.9,0.199 0.802,0.452 0,0.2 -0.101,0.2 -0.101,0.3 a 1.24,1.24 0 0 1 0.854,1.306 c -0.016,0.994 -0.519,1.193 -0.519,2.397 z m -1.052,-2.86 c 0.199,0 0.347,-0.102 0.347,-0.3 0,-0.2 -0.148,-0.3 -0.347,-0.3 -0.199,0 -0.355,0.096 -0.355,0.3 0,0.202 0.152,0.3 0.355,0.3 z m 1.403,32.227 c -0.3,0 -0.752,-0.25 -0.853,-1.656 0.202,0.3 0.389,0.503 0.705,1.005 -0.203,-0.604 -0.304,-0.803 -0.503,-1.407 0.702,0.702 1.002,1.205 1.002,1.606 0,0.304 -0.152,0.452 -0.351,0.452 z m 1.306,-14.356 v 0.6 c 0,0.503 -0.101,0.706 -0.39,0.706 -0.202,0 -0.503,-0.304 -0.705,-1.006 a 0.914,0.914 0 0 1 -0.78,1.006 v -0.604 c 0,-1.505 0.3,-1.906 1.403,-1.906 0.803,0 1.205,0.39 1.606,1.906 -0.331,0 -0.732,0 -1.134,-0.702 z"
     id="path48" />
  <path
     fill="#94b43b"
     d="m 85.137177,48.858402 v 0.701 c 0,0.39 -0.098,0.702 -0.3,0.702 -0.301,0 -0.601,-0.39 -0.702,-1.204 a 1.48,1.48 0 0 1 -0.904,1.204 c 0,-1.306 0.101,-2.007 0.502,-2.308 a 0.903,0.903 0 0 0 0.905,0.6 0.686,0.686 0 0 0 0.701,-0.701 c 0.39,0.3 0.702,0.803 0.905,1.707 -0.402,0.2 -0.986,-0.3 -1.107,-0.701 z m 1.107,6.524 -0.39,-0.604 -0.904,-1.103 -0.904,0.3 -0.503,0.503 h -0.199 l 0.199,-0.803 1.306,-0.803 -0.503,-2.21 c 0.101,0.101 0.202,0.101 0.503,0.101 0.202,0 0.3,0 0.389,-0.1 l 0.203,2.21 2.109,0.802 0.3,0.6 h -0.203 l -0.199,-0.3 -1.005,-0.3 0.803,0.702 0.101,0.701 h -0.199 l -0.3,-0.499 -1.107,-0.904 0.604,1.002 0.098,0.705 z m -1.86,4.518 c -0.198,0 -0.553,-0.101 -0.951,-1.005 0.3,0.202 0.199,0.101 0.803,0.502 a 3.115,3.115 0 0 1 -0.705,-0.904 c 0.803,0.39 1.169,0.752 1.169,1.17 -0.012,0.136 -0.113,0.237 -0.316,0.237 z m 3.263,-16.164 c -0.198,1.005 -0.389,2.409 -0.799,3.313 -0.39,0 -0.705,-0.604 -0.705,-1.306 0,-0.701 0.39,-2.409 0.503,-3.414 0,1.005 0.6,1.407 1.001,1.407 z m 2.011,0.401 c -0.389,2.409 -1.508,6.124 -2.911,8.233 a 0.713,0.713 0 0 1 -0.304,-0.6 c 0.07,-0.692 0.239,-1.37 0.503,-2.012 0.502,-1.805 1.305,-4.315 1.504,-7.227 0.101,1.205 0.706,1.505 1.208,1.606 z m -2.81,-5.523 c 0,-0.702 0.3,-1.002 0.6,-1.002 0.3,0 0.39,0.3 0.39,1.805 a 22.21,22.21 0 0 1 -0.203,3.617 c -0.389,0 -0.9,-0.604 -0.9,-1.508 0.012,-0.6 0.113,-1.606 0.113,-2.912 z m 4.716,6.225 c -0.39,2.409 -1.707,6.427 -3.212,8.536 a 0.917,0.917 0 0 1 -0.304,-0.705 c 0.014,-0.654 0.146,-1.3 0.39,-1.906 0.706,-1.906 1.707,-4.818 2.011,-7.73 0.11,1.205 0.515,1.707 1.115,1.805 z m -2.611,-9.636 c 0.3,0 0.503,0.39 0.803,2.908 -0.9,0 -1.205,-1.002 -1.205,-1.906 0,-0.702 0.102,-1.002 0.402,-1.002 z m 0.904,3.715 v 1.707 c 0.013,0.87 -0.021,1.741 -0.101,2.608 -0.6,0 -1.205,-0.6 -1.205,-1.505 0,-0.503 0.102,-1.306 0.102,-2.21 0.012,-0.67 -0.022,-1.341 -0.102,-2.007 0.215,0.904 0.702,1.407 1.306,1.407 z m 0.503,-1.606 c -0.203,-1.107 -0.503,-2.612 -1.204,-3.508 -0.102,-0.203 -0.203,-0.3 -0.203,-0.503 a 0.322,0.322 0 0 1 0.3,-0.3 c 0.304,0 0.604,0.3 0.807,0.6 0.904,1.306 1.403,2.729 1.606,5.325 -0.803,-0.008 -1.107,-0.413 -1.306,-1.614 z m 3.111,7.729 a 26.52,26.52 0 0 1 -3.509,9.745 0.64,0.64 0 0 1 -0.502,-0.6 c 0,-0.503 0.3,-1.205 0.604,-2.11 0.6,-1.706 1.805,-4.217 2.307,-8.734 -0.004,1.196 0.499,1.7 1.1,1.7 z m -1.197,-7.729 c -0.249,-2.011 -1.002,-3.508 -1.805,-4.32 -0.389,-0.389 -0.705,-0.502 -0.705,-0.7 0,-0.2 0.203,-0.305 0.39,-0.305 0.604,0 1.707,0.905 2.51,2.41 a 13.596,13.596 0 0 1 1.107,4.618 c -0.799,0 -1.353,-0.503 -1.497,-1.703 z"
     id="path50" />
  <path
     fill="#94b43b"
     d="m 91.763177,39.721402 c 0.089,0.429 0.123,0.868 0.102,1.305 a 17.355,17.355 0 0 1 -0.3,3.119 c -0.905,-0.203 -1.006,-1.006 -1.006,-1.809 0,-0.503 0.101,-1.403 0.101,-2.109 0,-0.499 -0.101,-1.204 -0.198,-2.108 0.3,1.298 0.803,1.602 1.301,1.602 z m 3.115,9.234 c -0.803,2.611 -2.008,5.32 -3.508,7.13 a 0.463,0.463 0 0 1 -0.3,-0.504 c 0,-0.39 0.502,-1.204 1.005,-2.51 a 47.97,47.97 0 0 0 1.906,-6.237 c -0.008,1.42 0.296,1.922 0.897,2.12 z m -1.103,-9.136 a 34.53,34.53 0 0 1 -0.203,4.42 c -0.904,-0.102 -1.006,-1.006 -1.006,-1.708 v -2.007 a 17.542,17.542 0 0 0 -0.097,-2.21 c 0.195,1.204 0.803,1.505 1.306,1.505 z m -0.102,14.858 c 0.029,-0.34 0.095,-0.676 0.199,-1.002 0.101,0.6 1.508,0.905 1.508,1.906 v 0.39 c 0.199,-0.499 0.702,-0.499 1.103,-0.499 1.006,0 1.357,0.047 1.505,-0.101 a 1.63,1.63 0 0 1 -1.703,1.403 c -1.209,0.012 -2.612,-0.791 -2.612,-2.097 z m 2.207,-14.457 v 1.407 a 25.15,25.15 0 0 1 -0.803,6.525 c -0.499,-0.199 -0.901,-0.702 -0.901,-1.805 a 3.374,3.374 0 0 1 0.102,-1.005 c 0.197,-1.464 0.297,-2.94 0.3,-4.417 a 18.394,18.394 0 0 0 -0.102,-2.311 c 0.3,1.306 0.916,1.606 1.404,1.606 z"
     id="path52" />
  <path
     fill="#94b43b"
     d="m 94.578177,53.071402 a 0.776,0.776 0 0 1 0.097,-0.499 c 0.304,0.6 1.707,0.702 1.707,1.704 0.203,-0.9 1.606,-0.5 2.21,-1.103 -0.101,1.204 -0.701,1.605 -1.707,1.605 -1.306,0 -2.307,-0.6 -2.307,-1.707 z"
     id="path54" />
  <path
     fill="#94b43b"
     d="m 95.178177,51.466402 a 0.913,0.913 0 0 1 0.101,-0.504 c 0.39,0.605 1.404,0.605 1.404,1.407 0.304,-0.802 1.407,-0.502 1.91,-0.904 -0.102,1.006 -0.702,1.606 -1.606,1.606 -1.107,0 -1.809,-0.701 -1.809,-1.606 z"
     id="path56" />
  <path
     fill="#94b43b"
     d="m 96.986177,51.364402 c -0.904,0 -1.458,-0.803 -1.407,-1.805 0.203,0.199 1.407,0.39 1.306,1.403 0.101,-1.001 1.006,-0.803 1.407,-1.302 v 0.5 a 1.238,1.238 0 0 1 -0.4,0.876 1.233,1.233 0 0 1 -0.906,0.328 z"
     id="path58" />
  <path
     fill="#94b43b"
     d="m 96.986177,49.758402 a 1.048,1.048 0 0 1 -0.604,-1.002 c 0,-0.604 0.39,-1.107 0.39,-1.91 0.513,0.472 0.834,1.116 0.904,1.809 a 1.161,1.161 0 0 1 -0.69,1.103 z m -28.325,-9.487 c 0.503,0 1.103,-0.3 1.407,-1.607 -0.082,0.768 -0.116,1.54 -0.101,2.312 0,1.477 0.1,2.953 0.3,4.416 0.084,0.329 0.118,0.668 0.101,1.006 0,1.103 -0.39,1.606 -0.904,1.805 a 25.589,25.589 0 0 1 -0.9,-6.525 c -0.02,-0.472 0.012,-0.944 0.097,-1.407 z"
     id="path60" />
</svg>
